<svg id="_4" data-name="4" xmlns="http://www.w3.org/2000/svg" viewBox="0 0 1234.25 1157.77"><defs><style>.cls-1{fill:#fff;}.cls-2{fill:none;stroke:#fff;stroke-miterlimit:10;stroke-width:2px;}.cls-3{fill:#e43800;}</style></defs><path class="cls-1" d="M78.94,1044.36H74.39c-.41-3.06-1.85-4.6-4.34-4.6a5.13,5.13,0,0,0-3.64,1.16,4.59,4.59,0,0,0-1.22,3.46,4.78,4.78,0,0,0,1.35,3.23l9.71,10.91a9.55,9.55,0,0,1,2.69,6.47v2.32a8.85,8.85,0,0,1-2.69,6.43,8.76,8.76,0,0,1-6.46,2.72h-4.6q-4.56,0-6.85-2.3c-1.54-1.53-2.3-3.82-2.3-6.85h4.6c0,.31,0,.56,0,.75a3.19,3.19,0,0,0,1.44,2.83,5.51,5.51,0,0,0,3.16,1,4.54,4.54,0,0,0,3.52-1.18,4.93,4.93,0,0,0,1.08-3.44,4.67,4.67,0,0,0-1.36-3.22l-9.71-10.87a9.5,9.5,0,0,1-2.68-6.47v-2.32a9.2,9.2,0,0,1,9.15-9.15h4.6Q78.38,1035.21,78.94,1044.36Z"/><path class="cls-1" d="M92.69,1076.46v-36.65H83.54v-4.6H111v4.6h-9.16v36.65Z"/><path class="cls-1" d="M115.63,1076.46v-32.1a9.22,9.22,0,0,1,9.16-9.15H134a9.22,9.22,0,0,1,9.15,9.15v32.1H134v-18.35h-9.19v18.35Zm9.16-22.9H134v-9.2a4.34,4.34,0,0,0-1.36-3.21,4.59,4.59,0,0,0-6.48,0,4.37,4.37,0,0,0-1.35,3.21Z"/><path class="cls-1" d="M152.29,1076.46v-41.25h9.15v16.84l14.82-16.84h8.12L166,1055.83l18.34,20.63h-9.19l-13.75-16v16Z"/><path class="cls-1" d="M193.54,1076.46v-41.25h22.9v4.6H202.69v13.75h9.19v4.55h-9.19v13.75h13.75v4.6Z"/><path class="cls-1" d="M271.16,1049h4.55v4.6a8.87,8.87,0,0,1-2.62,6.53,8.37,8.37,0,0,1-6.12,2.62h-.41v4.6a9.38,9.38,0,0,1-2.64,6.09,8.27,8.27,0,0,1-6.51,3.06h-9.2a8.3,8.3,0,0,1-6.51-3.06,9.38,9.38,0,0,1-2.64-6.09v-4.6a10.12,10.12,0,0,1,2.28-6.12q2.28-3,6.87-3-9.15-1.08-9.15-9.2a9.24,9.24,0,0,1,9.15-9.15h9.2a9.22,9.22,0,0,1,9.15,9.15v4.6h-9.15v-4.6a4.36,4.36,0,0,0-1.36-3.23,4.64,4.64,0,0,0-6.48,0,4.36,4.36,0,0,0-1.36,3.23v2.32c0,2.68,1.54,4.2,4.6,4.56v4.59c-3.06.39-4.6,1.92-4.6,4.6v6.88a4.21,4.21,0,0,0,1.36,3.41,5.17,5.17,0,0,0,6.48,0,4.21,4.21,0,0,0,1.36-3.41v-9.2h9.15a4.45,4.45,0,0,0,3.26-1.33,4.39,4.39,0,0,0,1.34-3.22Z"/><path class="cls-1" d="M298.34,1076.46v-41.25h22.9v4.6H307.49v13.75h9.19v4.55h-9.19v13.75h13.75v4.6Z"/><path class="cls-1" d="M330.43,1076.46v-32.1a9.22,9.22,0,0,1,9.16-9.15h9.19a9.22,9.22,0,0,1,9.15,9.15v32.1h-9.15v-18.35h-9.19v18.35Zm9.16-22.9h9.19v-9.2a4.34,4.34,0,0,0-1.36-3.21,4.59,4.59,0,0,0-6.48,0,4.37,4.37,0,0,0-1.35,3.21Z"/><path class="cls-1" d="M367.09,1076.46v-41.25h18.34a9.24,9.24,0,0,1,9.16,9.15v2.49a9.86,9.86,0,0,1-2.11,5.92q-2.1,2.85-7.05,2.85H390a4.63,4.63,0,0,1,4.6,4.6v16.24h-9.16v-13.75a4.63,4.63,0,0,0-4.59-4.6h-4.6v18.35Zm9.15-22.9h4.6a4.66,4.66,0,0,0,4.59-4.6v-4.6a4.34,4.34,0,0,0-1.36-3.21,4.44,4.44,0,0,0-3.23-1.34h-4.6Z"/><path class="cls-1" d="M403.74,1076.46v-41.25h2.08l25.42,22.9v-22.9h4.6v41.25h-2.11l-25.39-22.9v22.9Z"/><path class="cls-1" d="M21.52,1142.46v-41.25H39.87a9.22,9.22,0,0,1,9.15,9.15v2.49a9.85,9.85,0,0,1-2.1,5.92c-1.41,1.9-3.75,2.85-7.05,2.85h4.56a4.61,4.61,0,0,1,4.59,4.6v16.24H39.87v-13.75a4.63,4.63,0,0,0-4.6-4.6H30.68v18.35Zm9.16-22.9h4.59a4.66,4.66,0,0,0,4.6-4.6v-4.6a4.34,4.34,0,0,0-1.36-3.21,4.44,4.44,0,0,0-3.24-1.34H30.68Z"/><path class="cls-1" d="M58.18,1142.46v-32.1a9.2,9.2,0,0,1,9.15-9.15h9.19a9.24,9.24,0,0,1,9.16,9.15v32.1H76.52v-18.35H67.33v18.35Zm9.15-22.9h9.19v-9.2a4.34,4.34,0,0,0-1.36-3.21,4.59,4.59,0,0,0-6.48,0,4.37,4.37,0,0,0-1.35,3.21Z"/><path class="cls-1" d="M94.83,1101.21H104v36.65h4.6a4.59,4.59,0,0,0,4.59-4.55v-32.1h9.16v36.65h4.59a4.59,4.59,0,0,0,4.56-4.55v-32.1h9.19v25.59A15.76,15.76,0,0,1,125,1142.46H113.17V1141a13.32,13.32,0,0,1-6.5,1.46H94.83Z"/><path class="cls-1" d="M163.25,1142.46v-41.25h2.09l19.59,19.55,19.57-19.55h4.6v41.25h-9.19v-25.22l-16.09,16.09-16-16.09v25.22Z"/><path class="cls-1" d="M218.25,1142.46v-32.1a9.22,9.22,0,0,1,9.16-9.15h9.19a9.22,9.22,0,0,1,9.15,9.15v32.1H236.6v-18.35h-9.19v18.35Zm9.16-22.9h9.19v-9.2a4.34,4.34,0,0,0-1.36-3.21,4.59,4.59,0,0,0-6.48,0,4.37,4.37,0,0,0-1.35,3.21Z"/><path class="cls-1" d="M259.46,1142.46v-36.65h-9.15v-4.6h27.5v4.6h-9.15v36.65Z"/><path class="cls-1" d="M282.41,1142.46v-41.25h22.9v4.6H291.56v13.75h9.19v4.55h-9.19v13.75h13.75v4.6Z"/><path class="cls-1" d="M314.5,1142.46v-41.25h18.35a9.22,9.22,0,0,1,9.15,9.15v2.49a9.85,9.85,0,0,1-2.1,5.92c-1.41,1.9-3.75,2.85-7,2.85h4.56a4.61,4.61,0,0,1,4.59,4.6v16.24h-9.15v-13.75a4.63,4.63,0,0,0-4.6-4.6h-4.59v18.35Zm9.16-22.9h4.59a4.66,4.66,0,0,0,4.6-4.6v-4.6a4.34,4.34,0,0,0-1.36-3.21,4.44,4.44,0,0,0-3.24-1.34h-4.59Z"/><path class="cls-1" d="M355.71,1142.46v-41.25h9.17v41.25Z"/><path class="cls-1" d="M378.66,1142.46v-32.1a9.2,9.2,0,0,1,9.15-9.15H397a9.24,9.24,0,0,1,9.16,9.15v32.1H397v-18.35h-9.19v18.35Zm9.15-22.9H397v-9.2a4.34,4.34,0,0,0-1.36-3.21,4.59,4.59,0,0,0-6.48,0,4.37,4.37,0,0,0-1.35,3.21Z"/><path class="cls-1" d="M415.31,1142.46v-41.25h9.15v36.65h13.75v4.6Z"/><path class="cls-1" d="M470.31,1110.36h-4.56c-.4-3.06-1.85-4.6-4.34-4.6a5.12,5.12,0,0,0-3.63,1.16,4.59,4.59,0,0,0-1.22,3.46,4.78,4.78,0,0,0,1.35,3.23l9.71,10.91a9.55,9.55,0,0,1,2.69,6.47v2.32a8.85,8.85,0,0,1-2.69,6.43,8.76,8.76,0,0,1-6.47,2.72h-4.59c-3,0-5.32-.77-6.86-2.3s-2.3-3.82-2.3-6.85H452c0,.31,0,.56,0,.75a3.19,3.19,0,0,0,1.44,2.83,5.51,5.51,0,0,0,3.16,1,4.56,4.56,0,0,0,3.52-1.18,4.93,4.93,0,0,0,1.07-3.44,4.7,4.7,0,0,0-1.35-3.22l-9.71-10.87a9.52,9.52,0,0,1-2.69-6.47v-2.32a9.22,9.22,0,0,1,9.16-9.15h4.59Q469.75,1101.21,470.31,1110.36Z"/><line class="cls-2" x1="616.52" y1="684.76" x2="235.79" y2="989.82"/><circle class="cls-3" cx="245.92" cy="982.56" r="14.33"/></svg>