<svg id="_2" data-name="2" xmlns="http://www.w3.org/2000/svg" viewBox="0 0 2198.25 1189.41"><defs><style>.cls-1{fill:#fff;}.cls-2{fill:#e43800;}</style></defs><path class="cls-1" d="M1567,372.55V331.3h18.35a9.2,9.2,0,0,1,9.15,9.15v2.32a8.56,8.56,0,0,1-2.29,6.32q-2.28,2.3-6.86,2.83,4.58,0,6.86,2.76a9.69,9.69,0,0,1,2.29,6.39v2.32a9.29,9.29,0,0,1-9.15,9.16Zm9.15-22.91h4.6a4.64,4.64,0,0,0,4.6-4.59v-4.6a4.32,4.32,0,0,0-1.36-3.21,4.45,4.45,0,0,0-3.24-1.35h-4.6Zm0,18.31h4.6a4.45,4.45,0,0,0,3.24-1.35,4.37,4.37,0,0,0,1.36-3.21V358.8q0-4.6-4.6-4.6h-4.6Z"/><path class="cls-1" d="M1603.67,372.55v-32.1a9.2,9.2,0,0,1,9.16-9.15H1622a9.2,9.2,0,0,1,9.15,9.15v32.1H1622V354.2h-9.19v18.35Zm9.16-22.91H1622v-9.19a4.32,4.32,0,0,0-1.36-3.21,4.56,4.56,0,0,0-6.48,0,4.35,4.35,0,0,0-1.35,3.21Z"/><path class="cls-1" d="M1644.88,372.55V335.89h-9.15V331.3h27.5v4.59h-9.15v36.66Z"/><path class="cls-1" d="M1672.38,372.55V335.89h-9.15V331.3h27.5v4.59h-9.15v36.66Z"/><path class="cls-1" d="M1695.33,372.55V331.3h9.15V368h13.75v4.6Z"/><path class="cls-1" d="M1727.42,372.55V331.3h22.91v4.59h-13.75v13.75h9.19v4.56h-9.19V368h13.75v4.6Z"/><path class="cls-1" d="M1773,372.55v-32.1a9.2,9.2,0,0,1,9.15-9.15h9.2a9.22,9.22,0,0,1,9.15,9.15v32.1h-9.15V354.2h-9.2v18.35Zm9.15-22.91h9.2v-9.19a4.33,4.33,0,0,0-1.37-3.21,4.55,4.55,0,0,0-6.47,0,4.32,4.32,0,0,0-1.36,3.21Z"/><path class="cls-1" d="M1809.6,372.55V331.3H1828a9.22,9.22,0,0,1,9.15,9.15v2.49a9.85,9.85,0,0,1-2.1,5.92q-2.12,2.85-7,2.85h4.55a4.61,4.61,0,0,1,4.6,4.59v16.25H1828V358.8a4.64,4.64,0,0,0-4.6-4.6h-4.6v18.35Zm9.15-22.91h4.6a4.66,4.66,0,0,0,4.6-4.59v-4.6a4.33,4.33,0,0,0-1.37-3.21,4.43,4.43,0,0,0-3.23-1.35h-4.6Z"/><path class="cls-1" d="M1846.25,372.55V331.3h22.91v4.59h-13.75v13.75h9.19v4.56h-9.19V368h13.75v4.6Z"/><path class="cls-1" d="M1878.35,372.55V331.3h2.08l25.42,22.9V331.3h4.6v41.25h-2.11L1883,349.64v22.91Z"/><path class="cls-1" d="M1919.6,372.55v-32.1a9.2,9.2,0,0,1,9.15-9.15h9.2a9.22,9.22,0,0,1,9.15,9.15v32.1H1938V354.2h-9.2v18.35Zm9.15-22.91h9.2v-9.19a4.33,4.33,0,0,0-1.37-3.21,4.55,4.55,0,0,0-6.47,0,4.32,4.32,0,0,0-1.36,3.21Z"/><path class="cls-1" d="M1969.68,372.55v-32.1a9.2,9.2,0,0,1,9.15-9.15h9.2a9.22,9.22,0,0,1,9.15,9.15v32.1H1988V354.2h-9.2v18.35Zm9.15-22.91h9.2v-9.19a4.33,4.33,0,0,0-1.37-3.21,4.55,4.55,0,0,0-6.47,0,4.32,4.32,0,0,0-1.36,3.21Z"/><path class="cls-1" d="M2033.83,363.39q-.6,9.17-9.15,9.16h-9.2a9.22,9.22,0,0,1-9.15-9.16V340.45A9,9,0,0,1,2009,334a8.75,8.75,0,0,1,6.5-2.72h9.2q8.64,0,9.15,9.15h-4.6q-.52-4.56-4.55-4.56h-4.6a4.42,4.42,0,0,0-3.24,1.35,4.32,4.32,0,0,0-1.36,3.21v22.94a4.61,4.61,0,0,0,4.6,4.56h4.6q4,0,4.55-4.56Z"/><path class="cls-1" d="M2070.48,363.39q-.6,9.17-9.15,9.16h-9.19a9.22,9.22,0,0,1-9.16-9.16V340.45a8.94,8.94,0,0,1,2.66-6.43,8.74,8.74,0,0,1,6.5-2.72h9.19q8.64,0,9.15,9.15h-4.59q-.54-4.56-4.56-4.56h-4.6a4.42,4.42,0,0,0-3.24,1.35,4.35,4.35,0,0,0-1.35,3.21v22.94a4.59,4.59,0,0,0,4.59,4.56h4.6q4,0,4.56-4.56Z"/><path class="cls-1" d="M2079.63,372.55V331.3h22.91v4.59h-13.75v13.75H2098v4.56h-9.19V368h13.75v4.6Z"/><path class="cls-1" d="M2134.63,340.45h-4.55q-.6-4.6-4.34-4.6a5.12,5.12,0,0,0-3.63,1.16,4.54,4.54,0,0,0-1.23,3.46,4.75,4.75,0,0,0,1.36,3.22l9.71,10.92a9.54,9.54,0,0,1,2.68,6.46v2.32a9.22,9.22,0,0,1-9.15,9.16h-4.6c-3,0-5.32-.77-6.85-2.3s-2.3-3.82-2.3-6.86h4.6c0,.32,0,.57,0,.76a3.19,3.19,0,0,0,1.44,2.83,5.5,5.5,0,0,0,3.15,1,4.61,4.61,0,0,0,3.53-1.18,5,5,0,0,0,1.07-3.44,4.7,4.7,0,0,0-1.35-3.22l-9.71-10.87a9.53,9.53,0,0,1-2.69-6.47v-2.32a9.2,9.2,0,0,1,9.15-9.15h4.6Q2134.07,331.3,2134.63,340.45Z"/><path class="cls-1" d="M2166.73,340.45h-4.55q-.6-4.6-4.34-4.6a5.09,5.09,0,0,0-3.63,1.16,4.54,4.54,0,0,0-1.23,3.46,4.7,4.7,0,0,0,1.36,3.22l9.71,10.92a9.54,9.54,0,0,1,2.68,6.46v2.32a9.22,9.22,0,0,1-9.15,9.16H2153c-3,0-5.32-.77-6.85-2.3s-2.3-3.82-2.3-6.86h4.6c0,.32,0,.57,0,.76a3.19,3.19,0,0,0,1.44,2.83,5.53,5.53,0,0,0,3.16,1,4.58,4.58,0,0,0,3.52-1.18,4.94,4.94,0,0,0,1.08-3.44,4.7,4.7,0,0,0-1.35-3.22l-9.72-10.87a9.52,9.52,0,0,1-2.68-6.47v-2.32a9.18,9.18,0,0,1,9.15-9.15h4.6Q2166.18,331.3,2166.73,340.45Z"/><rect class="cls-1" x="1069.15" y="476.55" width="487.87" height="2" transform="translate(-67.95 689.67) rotate(-28.72)"/><circle class="cls-2" cx="1515.81" cy="366.55" r="14.33"/></svg>