<svg id="Layer_1" data-name="Layer 1" xmlns="http://www.w3.org/2000/svg" viewBox="0 0 500 430.13"><defs><style>.cls-1{fill:#232323;}</style></defs><path class="cls-1" d="M216.2,155.43h0a1.15,1.15,0,0,1-1.14-1.17c.49-33.64-16.42-108.4-16.6-109.15a1.16,1.16,0,0,1,.87-1.38,1.15,1.15,0,0,1,1.37.87c.17.75,17.15,75.78,16.66,109.7A1.15,1.15,0,0,1,216.2,155.43Z"/><path class="cls-1" d="M195.83,46.28a21.46,21.46,0,0,1-15.36-6.86c-3.07-3.14-9.85-12-6.58-25.86a1.14,1.14,0,0,1,1.06-.88,1.16,1.16,0,0,1,1.14.77c1.76,5.09,3.58,10.35,9.27,13,3.21-4.76,4.59-7.11,4.6-7.13a1.2,1.2,0,0,1,1-.57,1.16,1.16,0,0,1,1,.59l3.89,7c1.35-3.33,3.08-7.42,3.1-7.47a1.16,1.16,0,0,1,.88-.69,1.15,1.15,0,0,1,1,.39s2.72,3.14,5.16,6.26c.39-2.92.81-6.19.81-6.19a1.14,1.14,0,0,1,2-.61s3.15,3.62,5.22,6.1a3.78,3.78,0,0,0,1.83-1.21c1.51-1.74,3.13-5.78,2.2-15.2a1.15,1.15,0,0,1,1.87-1c4,3.28,6.13,9.37,5.65,16.28-1.09,15.44-15.81,22.16-28.08,23.22C197,46.26,196.4,46.28,195.83,46.28Zm-20.4-28a24.46,24.46,0,0,0,6.68,19.5c4.32,4.42,9.72,6.59,15.22,6.11,11.37-1,25-7.09,26-21.09.13-1.94.25-7.76-2.71-12,.28,6.46-.72,11-3,13.64a5.56,5.56,0,0,1-4,2.07,1.18,1.18,0,0,1-.92-.42c-1.13-1.35-2.71-3.21-3.91-4.6-.26,2-.61,4.67-.86,6.41a1.17,1.17,0,0,1-.86.95,1.14,1.14,0,0,1-1.2-.44c-1.75-2.37-4.12-5.24-5.53-6.92-.89,2.13-2.39,5.73-3.25,8a1.15,1.15,0,0,1-2.08.14l-4.11-7.43c-.82,1.32-2.18,3.41-4.17,6.34a1.15,1.15,0,0,1-1.36.42C179.8,26.75,177.2,22.61,175.43,18.31Z"/><path class="cls-1" d="M181.84,25.37a1.24,1.24,0,0,1-.27,0,1.14,1.14,0,0,1-.84-1.39c2.36-9.57,11.76-11.4,14.85-12,12.83-2.5,23.4,7.46,23.5,7.57a1.29,1.29,0,0,1,.47,1.22,1.14,1.14,0,0,1-2.07.42c-.6-.56-10.18-9.15-21.46-6.95-4.75.92-11.27,3-13.07,10.3A1.13,1.13,0,0,1,181.84,25.37Z"/><path class="cls-1" d="M181.64,23.36a1.15,1.15,0,0,1-1.11-.87,27.43,27.43,0,0,1,.08-13.44,1.15,1.15,0,0,1,2.09-.31l4.16,6.86a1.15,1.15,0,1,1-2,1.19l-2.63-4.33a25.06,25.06,0,0,0,.48,9.47,1.15,1.15,0,0,1-.83,1.4A1.33,1.33,0,0,1,181.64,23.36Z"/><path class="cls-1" d="M187.29,16.64a.71.71,0,0,1-.2,0,1.15,1.15,0,0,1-.93-1.33c.81-4.44,2.65-12.63,2.67-12.71a1.14,1.14,0,0,1,2.06-.4s2.87,4.13,6.26,8.58a1.15,1.15,0,0,1-1.83,1.39c-1.91-2.51-3.65-4.9-4.81-6.54-.61,2.78-1.57,7.23-2.09,10.09A1.15,1.15,0,0,1,187.29,16.64Z"/><path class="cls-1" d="M205,13.46a1.15,1.15,0,0,1-1.14-1c-.45-2.85-2.49-6.3-4-8.48a50.63,50.63,0,0,1-2.32,8.25,1.15,1.15,0,1,1-2.13-.86A57.72,57.72,0,0,0,198.12,1a1.14,1.14,0,0,1,2-.53c.21.26,5.15,6.56,6,11.69a1.15,1.15,0,0,1-1,1.32Z"/><path class="cls-1" d="M217,20a1.14,1.14,0,0,1-1-.63C214.28,16,211.18,9.84,209.5,6.5c-.88,2.25-2.17,5.49-2.86,7.08a1.14,1.14,0,0,1-1.51.59,1.15,1.15,0,0,1-.6-1.51c1.08-2.47,3.74-9.32,3.77-9.39a1.14,1.14,0,0,1,1-.73,1.11,1.11,0,0,1,1.08.63s5.24,10.39,7.61,15.15a1.15,1.15,0,0,1-.51,1.54A1.2,1.2,0,0,1,217,20Z"/><path class="cls-1" d="M194.51,45.81a1.14,1.14,0,0,1-1-.67L189,35.51c-1,2.17-2.27,4.73-3.22,6.48a1.15,1.15,0,0,1-2-1.09c1.49-2.76,3.35-6.63,4.15-8.62a1.14,1.14,0,0,1,1-.72,1.21,1.21,0,0,1,1.07.66l4.42,9.63L198.31,33a1.15,1.15,0,0,1,2-.24l5.59,7.31,2.19-8.2a1.14,1.14,0,0,1,.79-.8,1.12,1.12,0,0,1,1.09.24A58.51,58.51,0,0,1,214.46,36l1.26-7.85a1.16,1.16,0,0,1,.52-.8,1.19,1.19,0,0,1,.94-.12l5.31,1.58a1.15,1.15,0,0,1-.65,2.2l-4.06-1.21-1.45,9.05a1.14,1.14,0,0,1-2,.53,59.12,59.12,0,0,0-4.53-5l-2.3,8.58a1.13,1.13,0,0,1-.88.83,1.14,1.14,0,0,1-1.14-.43l-5.81-7.6-4.08,9.41a1.14,1.14,0,0,1-1,.69Z"/><path class="cls-1" d="M184.67,41.73a1.15,1.15,0,0,1-1.12-.92c-.37-1.78-1.87-6.78-2.6-9.17l-2.8,1.41a1.15,1.15,0,0,1-1-2.06l4-2a1.14,1.14,0,0,1,1.61.69c.1.34,2.54,8.21,3,10.68a1.14,1.14,0,0,1-.89,1.35A.91.91,0,0,1,184.67,41.73Z"/><path class="cls-1" d="M200.79,55.27c-5.15,0-10.63-6.89-12.6-10.47a1.15,1.15,0,0,1,2-1.11c2,3.68,7.5,9.9,11.18,9.23,5.7-1.05,8.39-7.46,9.92-12.19a1.15,1.15,0,0,1,2.19.71c-1.72,5.28-4.79,12.46-11.7,13.74A5.55,5.55,0,0,1,200.79,55.27Z"/><path class="cls-1" d="M239.27,87.58a51.64,51.64,0,0,1-11.22-1.35c-6.58-1.49-9.7-4.74-12.62-9.49a28.8,28.8,0,0,1-4.2-15.85,26.42,26.42,0,0,1,1.34-7.48,25,25,0,0,1,3.55-6.89,1.18,1.18,0,0,1,1.16-.44,1.16,1.16,0,0,1,.88.88c.85,3.82,2.71,10.95,4.16,15.36l6.3-5.11a1.17,1.17,0,0,1,1.14-.17,1.13,1.13,0,0,1,.72.9l.93,6.29c1.33-1.24,2.46-2.19,4.15-3.6l.81-.68a1.15,1.15,0,0,1,1.07-.21,1.12,1.12,0,0,1,.77.77c.78,2.7,1.43,5.25,2.1,8.23.73-.74,1.48-1.49,2.27-2.25,1-.94,2-1.93,3-3a1.14,1.14,0,0,1,1-.34,1.16,1.16,0,0,1,.86.6c.82,1.56,1.43,2.85,2,4s.92,2,1.39,2.8c3.49-1.38,5.26-3.3,9.41-13.17a1.13,1.13,0,0,1,1.11-.71,1.16,1.16,0,0,1,1,.81,25.54,25.54,0,0,1,0,16.29c-2,5.44-7.07,10.09-13.6,12.42A28.6,28.6,0,0,1,239.27,87.58ZM216.54,50.09a24.2,24.2,0,0,0-1.79,4A23.34,23.34,0,0,0,213.53,61a26.43,26.43,0,0,0,3.86,14.58c2.67,4.35,5.35,7.13,11.17,8.46,7.49,1.7,14.58,1.69,19.43,0,5.81-2.07,10.49-6.3,12.21-11A22.05,22.05,0,0,0,261,61.35c-3.49,7.8-5.56,10-10.29,11.63a1.16,1.16,0,0,1-1.36-.48,36.89,36.89,0,0,1-2-3.82c-.36-.75-.75-1.57-1.21-2.49-.68.68-1.33,1.32-2,1.94-1.31,1.29-2.56,2.5-3.66,3.77a1.15,1.15,0,0,1-2-.52c-.69-3.27-1.31-5.87-2-8.53a68,68,0,0,0-5.08,4.58,1.14,1.14,0,0,1-1.94-.65l-1-6.51-6,4.87a1.16,1.16,0,0,1-1,.21,1.14,1.14,0,0,1-.77-.71C219.39,61.07,217.64,54.64,216.54,50.09Z"/><path class="cls-1" d="M254.52,70.35a1.16,1.16,0,0,1-1-.63,35.46,35.46,0,0,0-5.9-8.84,21.14,21.14,0,0,0-8.41-6c-9.24-3.22-15.48,2.47-17.84,4.61l-.31.28a1.15,1.15,0,1,1-1.54-1.71l.31-.27c2.38-2.16,9.61-8.74,20.2-5.06a23.57,23.57,0,0,1,9.28,6.54,38.27,38.27,0,0,1,6.27,9.37,1.15,1.15,0,0,1-1,1.66Z"/><path class="cls-1" d="M221,58.92h-.15a1.15,1.15,0,0,1-1-1.28,27.5,27.5,0,0,1,4.94-12.5,1.13,1.13,0,0,1,1.19-.45,1.14,1.14,0,0,1,.88.92l1.39,7.9a1.15,1.15,0,0,1-2.26.4l-.88-5a24.94,24.94,0,0,0-3,9A1.13,1.13,0,0,1,221,58.92Z"/><path class="cls-1" d="M238.31,54.3a1.16,1.16,0,0,1-1.1-.81c-.83-2.72-1.43-5.26-2-7.56l-3.9,7.14a1.15,1.15,0,1,1-2-1.1l5.36-9.81a1.13,1.13,0,0,1,1.16-.59,1.15,1.15,0,0,1,1,.88l.41,1.82c.57,2.56,1.22,5.45,2.17,8.55a1.16,1.16,0,0,1-.76,1.43A1.4,1.4,0,0,1,238.31,54.3Z"/><path class="cls-1" d="M246.3,58.14a1.24,1.24,0,0,1-.27,0,1.17,1.17,0,0,1-.85-1.39,82.18,82.18,0,0,0,1.75-9.89,79.3,79.3,0,0,0-7,7.07,1.14,1.14,0,1,1-1.73-1.5,84.45,84.45,0,0,1,9.45-9.19,1.15,1.15,0,0,1,1.88,1,86,86,0,0,1-2.08,13.08A1.15,1.15,0,0,1,246.3,58.14Z"/><path class="cls-1" d="M255,67.57h0a1.15,1.15,0,0,1-1.13-1.17c.08-5.11.07-8.68,0-12.71-1.29,1-2.36,1.85-3.28,2.56-1.29,1-2.31,1.77-3.23,2.58a1.15,1.15,0,0,1-1.52-1.73c1-.86,2-1.66,3.35-2.68s3-2.26,5.06-4a1.15,1.15,0,0,1,1.88.87c.08,5.1.11,9,0,15.14A1.15,1.15,0,0,1,255,67.57Z"/><path class="cls-1" d="M242.35,86.46h-.07a1.13,1.13,0,0,1-1-.68c-1.11-2.48-2.86-6.1-3.88-8.19-1.76,2.08-5,6-6.23,7.64a1.14,1.14,0,0,1-2.05-.59c-.31-3.53-.94-7.54-1.55-11.27-2.55,1.92-5.42,4.07-7.79,6a1.15,1.15,0,0,1-1.46-1.77c2.47-2,5.44-4.26,8.06-6.23l1.32-1a1.18,1.18,0,0,1,1.12-.14,1.13,1.13,0,0,1,.7.87c.56,3.34,1.17,7,1.59,10.48,2.16-2.68,5.19-6.32,5.72-6.89a1.15,1.15,0,0,1,1-.34,1.1,1.1,0,0,1,.86.64l.64,1.31c.74,1.52,1.95,4,3,6.28.91-2.18,2-5.17,2.41-6.49a1.15,1.15,0,0,1,.88-.77,1.16,1.16,0,0,1,1.1.41l3.89,4.78,1.35-6a1.14,1.14,0,0,1,.51-.72,1.11,1.11,0,0,1,.87-.15L259.27,75a1.15,1.15,0,0,1,.86,1.38,1.14,1.14,0,0,1-1.38.86L254,76.14l-1.62,7.2a1.13,1.13,0,0,1-.85.87,1.16,1.16,0,0,1-1.15-.39c-.81-1-2.77-3.4-4.09-5a53.79,53.79,0,0,1-2.95,7.11A1.13,1.13,0,0,1,242.35,86.46Z"/><path class="cls-1" d="M218.29,78.64h-.11a1.15,1.15,0,0,1-1-1.25c.29-3.11.58-6.09.83-8.67l-1,.35c-.94.31-1.83.6-2.66.94a1.15,1.15,0,0,1-.88-2.12c.91-.38,1.88-.7,2.82-1s1.82-.6,2.64-.94a1.15,1.15,0,0,1,1.12.14,1.13,1.13,0,0,1,.46,1l-.09,1c-.27,2.76-.59,6.06-.91,9.52A1.16,1.16,0,0,1,218.29,78.64Z"/><path class="cls-1" d="M231.46,94.18a16.31,16.31,0,0,1-3.42-.39c-7.11-1.51-9.41-10.76-9.95-13.56a1.15,1.15,0,0,1,2.26-.43c1,5,3.61,10.78,8.17,11.74s8.23.25,12.89-6.45A1.14,1.14,0,0,1,243,84.8a1.15,1.15,0,0,1,.29,1.6C239.55,91.79,236,94.18,231.46,94.18Z"/><path class="cls-1" d="M158.33,109.27v96.57c0,24-25.06,29.44-40.14,18.58L120,222c9.28,6.13,23.31,6.66,23.31-9.29V109.27Z"/><path class="cls-1" d="M195.66,109.27V195c0,21.73,5.6,31,19.1,31,9.81,0,20.85-3.68,20.85-31.55V109.27h3.51V194.1c0,27.16-10.69,36.1-26.81,36.1-21.56,0-31.73-10-31.73-39.08V109.27Z"/><path class="cls-1" d="M302.74,114.71a36.13,36.13,0,0,0-17-3.86c-10.7,0-17.35,6.66-17.35,17.88,0,12.79,7,21.2,18.75,33,15.95,15.94,21.38,23.66,21.38,38.55,0,17.88-10.69,29.45-30.5,29.45-6.48,0-15.59-1.76-22.6-6.14l1.4-2.45a41,41,0,0,0,21,5.43c10.69,0,18-4.38,18.23-17.7,0-11.92-4.56-19.28-18.76-32.95-12.79-12.44-21.38-23-21.38-39.26,0-18.05,12.27-28.91,29.45-28.91A40.24,40.24,0,0,1,304,112.08Z"/><path class="cls-1" d="M380,109.27v3.16H353.91V227.92H338.84V112.43H312.73v-3.16Z"/><path class="cls-1" d="M48.2,261.35H15.07v54.33H40.31v3.15H15.07v58H0V258.19H48.2Z"/><path class="cls-1" d="M114.09,376.84H62.21V258.19H77.29v115.5h36.8Z"/><path class="cls-1" d="M190.68,317.25c0,40.66-12.79,61.87-37,61.87-24.36,0-37.15-21-37.15-61.51,0-40.66,13-61.87,37.5-61.87C178.06,255.74,190.68,276.77,190.68,317.25ZM133,317.08c0,38.73,7,58.89,20.68,58.89,13.49,0,20.5-19.46,20.5-58.19s-7-58.89-20.68-58.89S133,278.87,133,317.08Z"/><path class="cls-1" d="M294.43,258.19,276.55,376.84h-14l-13.84-78.51-14.37,78.51h-14L202.07,258.19h15.42l15.6,105.86,13.85-75.36-2.81-16.13H259l16,92,15.77-106.38Z"/><path class="cls-1" d="M363.13,376.84H310.55V258.19H359.8v3.16H325.62V315h27.52v3.15H325.62v55.56h37.51Z"/><path class="cls-1" d="M437.78,376.84H421.66l-8.76-39.61c-3.33-13.32-8.41-19.27-15.78-19.27h-5.25v58.88H376.79V258.19h25.07c21.38,0,30.32,12.62,30.32,28,0,18.76-11.92,28.57-26.64,30.32,11,1.93,18.93,8.59,22.43,22.26Zm-45.91-62h7c10.16,0,17-8.24,17-27.34,0-14.9-3.33-26.11-16.83-26.11h-7.18Z"/><path class="cls-1" d="M494.22,263.62a36.12,36.12,0,0,0-17-3.85c-10.69,0-17.36,6.66-17.36,17.88,0,12.79,7,21.2,18.76,33C494.57,326.54,500,334.25,500,349.15c0,17.88-10.69,29.44-30.5,29.44-6.48,0-15.59-1.75-22.6-6.13l1.4-2.45a41,41,0,0,0,21,5.43c10.69,0,18.05-4.38,18.23-17.7,0-11.92-4.56-19.28-18.76-32.95-12.79-12.44-21.38-23-21.38-39.26,0-18,12.27-28.92,29.45-28.92A40.25,40.25,0,0,1,495.44,261Z"/><path class="cls-1" d="M184.83,429.71V407.27h6.67a13.16,13.16,0,0,1,4,.55,5.48,5.48,0,0,1,2.7,1.74,4.89,4.89,0,0,1,1,3.18,5.62,5.62,0,0,1-.84,3,4.38,4.38,0,0,1-2.45,1.87v.13a6,6,0,0,1,3.3,1.71,5.05,5.05,0,0,1,1.29,3.67,6,6,0,0,1-1.08,3.66,6.42,6.42,0,0,1-3,2.19,12.63,12.63,0,0,1-4.45.71Zm2.84-12.9H191a6.81,6.81,0,0,0,4.14-1,3.25,3.25,0,0,0,1.26-2.7,3,3,0,0,0-1.32-2.77,7.53,7.53,0,0,0-3.95-.82h-3.45Zm0,10.65h3.9a8,8,0,0,0,4.51-1.08,3.72,3.72,0,0,0,1.61-3.34A3.33,3.33,0,0,0,196.1,420a8.71,8.71,0,0,0-4.53-1h-3.9Z"/><path class="cls-1" d="M214.94,429.71V421l-6.74-13.75h3l2.91,6.33q.54,1.23,1.08,2.43c.35.8.71,1.62,1.07,2.46h.14c.39-.84.78-1.66,1.16-2.46s.76-1.61,1.1-2.43l2.87-6.33h3L217.81,421v8.69Z"/><path class="cls-1" d="M246.58,429.71V428l11.81-18.34H247.65v-2.39H262V409l-11.84,18.34h11.94v2.42Z"/><path class="cls-1" d="M278.27,430.13a7.65,7.65,0,0,1-3.58-.81,5.93,5.93,0,0,1-2.41-2.21,6,6,0,0,1-.86-3.21,5.49,5.49,0,0,1,.64-2.67,8.16,8.16,0,0,1,1.62-2.09,18.46,18.46,0,0,1,2.16-1.71,17.07,17.07,0,0,1-1.08-2.72,9,9,0,0,1-.39-2.55,5.5,5.5,0,0,1,.65-2.7,4.84,4.84,0,0,1,1.83-1.9,5.17,5.17,0,0,1,2.72-.7,4.27,4.27,0,0,1,3.25,1.23,4.51,4.51,0,0,1,1.16,3.22,4.73,4.73,0,0,1-.75,2.63,9.46,9.46,0,0,1-1.9,2.12c-.76.64-1.57,1.27-2.41,1.88a22.67,22.67,0,0,0,2.6,3.34,35.46,35.46,0,0,0,3.08,3,21,21,0,0,0,1.83-3.06,20.49,20.49,0,0,0,1.31-3.58h2.64a28.44,28.44,0,0,1-1.63,4.23,22.22,22.22,0,0,1-2.31,3.81,22.3,22.3,0,0,0,2.23,1.34,11.94,11.94,0,0,0,2,.82l-.75,2.33a17.38,17.38,0,0,1-2.48-1,19.26,19.26,0,0,1-2.69-1.59,10.19,10.19,0,0,1-2.87,1.86A8.85,8.85,0,0,1,278.27,430.13Zm-4.11-6.4a3.83,3.83,0,0,0,1.28,3,4.6,4.6,0,0,0,3.14,1.13,5.47,5.47,0,0,0,2.24-.48,8,8,0,0,0,2-1.34,34.63,34.63,0,0,1-3.16-3.14,29.47,29.47,0,0,1-2.72-3.53,13.4,13.4,0,0,0-2,2A3.76,3.76,0,0,0,274.16,423.73Zm2.64-11.6a6.57,6.57,0,0,0,.29,1.91,13.23,13.23,0,0,0,.77,2,18.09,18.09,0,0,0,2.68-2.14,3.47,3.47,0,0,0,1.15-2.58,3,3,0,0,0-.5-1.73,1.81,1.81,0,0,0-1.62-.73,2.48,2.48,0,0,0-2,.92A3.58,3.58,0,0,0,276.8,412.13Z"/><path class="cls-1" d="M307.32,430.13a10.6,10.6,0,0,1-4.38-.91,11.39,11.39,0,0,1-3.49-2.41l1.71-2a9.44,9.44,0,0,0,2.82,2,7.83,7.83,0,0,0,3.37.77,5.36,5.36,0,0,0,3.46-1A3.28,3.28,0,0,0,312,424a3.1,3.1,0,0,0-.5-1.85,4.09,4.09,0,0,0-1.33-1.16c-.56-.32-1.2-.64-1.9-1l-3.22-1.4a11.56,11.56,0,0,1-2.1-1.17,6.08,6.08,0,0,1-1.75-1.85,5.11,5.11,0,0,1-.7-2.77,5.32,5.32,0,0,1,.91-3.06,6.09,6.09,0,0,1,2.51-2.12,8.34,8.34,0,0,1,3.63-.77,9.05,9.05,0,0,1,3.73.77,9.36,9.36,0,0,1,2.91,2l-1.54,1.85a8.26,8.26,0,0,0-2.28-1.56,6.7,6.7,0,0,0-2.82-.56,4.77,4.77,0,0,0-3,.89,2.88,2.88,0,0,0-1.15,2.39,2.68,2.68,0,0,0,.57,1.76,4.47,4.47,0,0,0,1.42,1.15c.57.3,1.15.57,1.74.82l3.19,1.37a11.08,11.08,0,0,1,2.34,1.32,5.37,5.37,0,0,1,2.28,4.67A5.88,5.88,0,0,1,314,427a6.4,6.4,0,0,1-2.63,2.31A9,9,0,0,1,307.32,430.13Z"/><path class="cls-1" d="M211.69,189.69h-.12a1.16,1.16,0,0,1-1-1.26,777.39,777.39,0,0,1,18-101.75,1.15,1.15,0,0,1,2.23.58,772.58,772.58,0,0,0-18,101.41A1.15,1.15,0,0,1,211.69,189.69Z"/></svg>