<svg id="Layer_1" data-name="Layer 1" xmlns="http://www.w3.org/2000/svg" viewBox="0 0 90 90"><defs><style>.cls-1{fill:#c3c3c3;}.cls-2{fill:#7f7f7f;}.cls-3{fill:#9d0000;}.cls-4{fill:#e43800;}</style></defs><circle class="cls-1" cx="45" cy="45" r="45"/><path class="cls-2" d="M14.46,49.17l-2.86.26L14.17,46l-.06-.6L8,46l.1,1.09,2.9-.31L8.39,50.21v.61l6.12-.57Zm4.38,12.1-2.5,1.41.93-4.17L17,58l-5.34,3,.54,1,2.49-1.41-.93,4.18.3.52,5.34-3Zm-3.43-25L14.35,36l-.43,1.84-1.39-.32.28-1.23L11.75,36l-.28,1.23L10.07,37l.43-1.85-1.07-.24-.81,3.52,6,1.38ZM15,52.14,9.1,53.73l.45,1.67,5.93-1.6ZM9.2,43.07l5,.4.14-1.72-5-.4.1-1.26L8.35,40,8,44.24l1.08.09Zm66.59.73-.07,3.61h1.09V45.52h1.43v1.27h1.09V45.52h1.43v1.9h1.09l.08-3.61Zm-.65-5.45h-.08l.34,1.83a2.42,2.42,0,0,0,2.33,1.94,3.69,3.69,0,0,0,.47,0l3.68-.7-.32-1.7L77,40.57a.34.34,0,0,1-.29-.07.32.32,0,0,1-.17-.25l-.08-.4,5-.94-.32-1.69-4.57.87a.4.4,0,0,1-.3-.06.39.39,0,0,1-.17-.26l-.07-.4,5-.94-.33-1.69-6,1.15.35,1.82A2.3,2.3,0,0,0,75.14,38.35ZM19,28.51l-2.11-1.38.22-.34a.39.39,0,0,1,.25-.17.37.37,0,0,1,.31.05l1.78,1.16.93-1.44L18.3,25a.83.83,0,0,0-.65-.12.92.92,0,0,0-.23.09.84.84,0,0,0-.05-.17,1.62,1.62,0,0,0-.61-.8l-.29-.19a1.51,1.51,0,0,0-2.06.44L12.9,26.6,18.05,30ZM16.2,26.2l-.22.33-1.2-.78.22-.34a.41.41,0,0,1,.55-.12l.53.35a.39.39,0,0,1,.17.25.38.38,0,0,1-.07.31Zm-4.67,7,2.91,1.22a1.41,1.41,0,0,0,1.14,0,1.39,1.39,0,0,0,.81-.8l.49-1.17a1.55,1.55,0,0,0,.05-1.06,1.36,1.36,0,0,0-.84-.89l-2-.82-.91,2.17,1,.42.24-.58,1,.4a.36.36,0,0,1,.25.46l0,.07a.35.35,0,0,1-.22.21.32.32,0,0,1-.3,0L12.2,31.61a.41.41,0,0,1-.2-.21.39.39,0,0,1,0-.3l.25-.59c.07-.17.19-.31.55-.2l.19.05.42-1-.23-.08a1.37,1.37,0,0,0-1.85.58.85.85,0,0,0-.09.22l-.49,1.17a1.44,1.44,0,0,0,0,1.15,1.47,1.47,0,0,0,.76.81ZM79.89,53.07,75,51.81l-.43,1.68,4.89,1.25L79.15,56l1.06.27,1.05-4.11-1.06-.27ZM71.83,61a1.46,1.46,0,0,0-1,.63l-.7,1a1.5,1.5,0,0,0,.4,2.06l3.86,2.59,1-1.42-3.86-2.59a.41.41,0,0,1-.17-.26.35.35,0,0,1,.07-.3.32.32,0,0,1,.25-.17.36.36,0,0,1,.3.06l3.86,2.59,1-1.43L73,61.23A1.44,1.44,0,0,0,71.83,61Zm-.19,6.9a1.5,1.5,0,0,0-1-.41l-2-.07a.44.44,0,0,1-.29-.11.46.46,0,0,1-.17-.28.51.51,0,0,1,.15-.29.48.48,0,0,1,.28-.15.18.18,0,0,1,.21.07h.06l.16.19.77-.8-.22,0a1.55,1.55,0,0,0-1.07-.49,1.51,1.51,0,0,0-1,.54l-.44.46a1.46,1.46,0,0,0,0,2.06l.23.22a1.57,1.57,0,0,0,1,.41l2,.07a.46.46,0,0,1,.3.11.43.43,0,0,1,.16.29.53.53,0,0,1-.17.31c-.11.12-.25.2-.57,0L70,69.86l-.74.78.19.15a1.63,1.63,0,0,0,1,.46,1.44,1.44,0,0,0,1-.51l.44-.46a1.47,1.47,0,0,0,.41-1.07,1.42,1.42,0,0,0-.46-1Zm-4.06,4.9-3.08-4-1.37,1,3.09,4-1,.77.67.86,3.36-2.59L68.58,72Zm5.77-15.86,2.31,1-.16.37a.35.35,0,0,1-.22.21.34.34,0,0,1-.31,0l-2-.85-.68,1.58,2.26,1a.84.84,0,0,0,.66,0,.72.72,0,0,0,.21-.12.8.8,0,0,0,.08.16,1.53,1.53,0,0,0,.73.69l.32.14a1.43,1.43,0,0,0,.58.12,1.55,1.55,0,0,0,.56-.11,1.43,1.43,0,0,0,.82-.78l1.1-2.53L74,55.37Zm3.15,1.82.16-.37L78,59l-.16.37a.35.35,0,0,1-.22.21.39.39,0,0,1-.3,0l-.58-.25a.41.41,0,0,1-.22-.23A.34.34,0,0,1,76.5,58.76ZM29.17,13.93,28.09,12.1l-1.48.9,1.08,1.83a.32.32,0,0,1,0,.3.36.36,0,0,1-.18.25.42.42,0,0,1-.31,0A.45.45,0,0,1,27,15.2l-1.07-1.83-1.49.87,1.08,1.83a1.38,1.38,0,0,0,1.83.62l1.3,2.2L30.12,18l-1.3-2.21A1.36,1.36,0,0,0,29.17,13.93ZM15.81,67.62,16.89,69l4.77-3.86L20.57,63.8Zm1.28-46.83,4.54,4.13,1.16-1.27-4.54-4.14Zm6.68-4.74-.69-.85L19.8,17.91l.7.84,1-.8,3.22,3.89L26,20.74l-3.2-3.89Z"/><g id="_Radial_Repeat_" data-name=" Radial Repeat "><polygon class="cls-2" points="18.82 75.44 19.38 75.94 16.79 77.72 16.24 77.22 18.82 75.44"/></g><g id="_Radial_Repeat_2" data-name=" Radial Repeat 2"><polygon class="cls-2" points="17.23 73.99 17.75 74.52 15.08 76.15 14.55 75.62 17.23 73.99"/></g><g id="_Radial_Repeat_3" data-name=" Radial Repeat 3"><polygon class="cls-2" points="15.71 72.45 16.21 73.01 13.45 74.5 12.95 73.94 15.71 72.45"/></g><g id="_Radial_Repeat_4" data-name=" Radial Repeat 4"><polygon class="cls-2" points="14.28 70.83 14.74 71.42 11.91 72.75 11.44 72.17 14.28 70.83"/></g><g id="_Radial_Repeat_5" data-name=" Radial Repeat 5"><polygon class="cls-2" points="12.94 69.14 13.37 69.75 10.47 70.93 10.04 70.33 12.94 69.14"/></g><g id="_Radial_Repeat_6" data-name=" Radial Repeat 6"><polygon class="cls-2" points="11.69 67.38 12.09 68.01 9.13 69.04 8.73 68.41 11.69 67.38"/></g><g id="_Radial_Repeat_7" data-name=" Radial Repeat 7"><polygon class="cls-2" points="10.54 65.56 10.9 66.2 7.89 67.07 7.52 66.42 10.54 65.56"/></g><g id="_Radial_Repeat_8" data-name=" Radial Repeat 8"><polygon class="cls-2" points="9.48 63.67 9.81 64.34 6.76 65.04 6.43 64.37 9.48 63.67"/></g><g id="_Radial_Repeat_9" data-name=" Radial Repeat 9"><polygon class="cls-2" points="8.53 61.73 8.82 62.41 5.74 62.95 5.44 62.27 8.53 61.73"/></g><g id="_Radial_Repeat_10" data-name=" Radial Repeat 10"><polygon class="cls-2" points="7.69 59.74 7.94 60.44 4.83 60.81 4.57 60.12 7.69 59.74"/></g><g id="_Radial_Repeat_11" data-name=" Radial Repeat 11"><polygon class="cls-2" points="6.95 57.71 7.17 58.43 4.04 58.63 3.82 57.92 6.95 57.71"/></g><g id="_Radial_Repeat_12" data-name=" Radial Repeat 12"><polygon class="cls-2" points="6.32 55.65 6.5 56.37 3.37 56.41 3.19 55.68 6.32 55.65"/></g><g id="_Radial_Repeat_13" data-name=" Radial Repeat 13"><polygon class="cls-2" points="5.81 53.55 5.95 54.28 2.82 54.15 2.68 53.42 5.81 53.55"/></g><g id="_Radial_Repeat_14" data-name=" Radial Repeat 14"><polygon class="cls-2" points="5.41 51.43 5.51 52.16 2.39 51.86 2.29 51.13 5.41 51.43"/></g><g id="_Radial_Repeat_15" data-name=" Radial Repeat 15"><polygon class="cls-2" points="5.12 49.29 5.18 50.03 2.08 49.56 2.02 48.82 5.12 49.29"/></g><g id="_Radial_Repeat_16" data-name=" Radial Repeat 16"><polygon class="cls-2" points="4.95 47.14 4.97 47.88 1.9 47.24 1.88 46.5 4.95 47.14"/></g><g id="_Radial_Repeat_17" data-name=" Radial Repeat 17"><polygon class="cls-2" points="4.89 44.98 4.88 45.72 1.84 44.92 1.86 44.18 4.89 44.98"/></g><g id="_Radial_Repeat_18" data-name=" Radial Repeat 18"><polygon class="cls-2" points="4.95 42.82 4.89 43.56 1.91 42.6 1.97 41.86 4.95 42.82"/></g><g id="_Radial_Repeat_19" data-name=" Radial Repeat 19"><polygon class="cls-2" points="5.13 40.67 5.03 41.41 2.1 40.28 2.2 39.55 5.13 40.67"/></g><g id="_Radial_Repeat_20" data-name=" Radial Repeat 20"><polygon class="cls-2" points="5.42 38.53 5.28 39.26 2.42 37.98 2.56 37.25 5.42 38.53"/></g><g id="_Radial_Repeat_21" data-name=" Radial Repeat 21"><polygon class="cls-2" points="5.83 36.41 5.65 37.13 2.86 35.7 3.04 34.98 5.83 36.41"/></g><g id="_Radial_Repeat_22" data-name=" Radial Repeat 22"><polygon class="cls-2" points="6.35 34.31 6.13 35.02 3.42 33.45 3.64 32.73 6.35 34.31"/></g><g id="_Radial_Repeat_23" data-name=" Radial Repeat 23"><polygon class="cls-2" points="6.98 32.25 6.72 32.95 4.1 31.23 4.36 30.53 6.98 32.25"/></g><g id="_Radial_Repeat_24" data-name=" Radial Repeat 24"><polygon class="cls-2" points="7.72 30.22 7.43 30.9 4.9 29.05 5.19 28.36 7.72 30.22"/></g><g id="_Radial_Repeat_25" data-name=" Radial Repeat 25"><polygon class="cls-2" points="8.57 28.23 8.24 28.9 5.82 26.91 6.15 26.24 8.57 28.23"/></g><g id="_Radial_Repeat_26" data-name=" Radial Repeat 26"><polygon class="cls-2" points="9.53 26.3 9.16 26.95 6.85 24.83 7.21 24.18 9.53 26.3"/></g><g id="_Radial_Repeat_27" data-name=" Radial Repeat 27"><polygon class="cls-2" points="10.58 24.41 10.19 25.04 7.99 22.8 8.39 22.17 10.58 24.41"/></g><g id="_Radial_Repeat_28" data-name=" Radial Repeat 28"><polygon class="cls-2" points="11.74 22.59 11.31 23.2 9.24 20.84 9.67 20.24 11.74 22.59"/></g><g id="_Radial_Repeat_29" data-name=" Radial Repeat 29"><polygon class="cls-2" points="12.99 20.83 12.53 21.41 10.59 18.95 11.05 18.37 12.99 20.83"/></g><g id="_Radial_Repeat_30" data-name=" Radial Repeat 30"><polygon class="cls-2" points="14.34 19.14 13.85 19.7 12.04 17.14 12.53 16.58 14.34 19.14"/></g><g id="_Radial_Repeat_31" data-name=" Radial Repeat 31"><polygon class="cls-2" points="15.78 17.53 15.25 18.06 13.59 15.4 14.11 14.87 15.78 17.53"/></g><g id="_Radial_Repeat_32" data-name=" Radial Repeat 32"><polygon class="cls-2" points="17.3 15.99 16.75 16.5 15.22 13.75 15.77 13.25 17.3 15.99"/></g><g id="_Radial_Repeat_33" data-name=" Radial Repeat 33"><polygon class="cls-2" points="18.89 14.54 18.32 15.02 16.94 12.2 17.52 11.73 18.89 14.54"/></g><g id="_Radial_Repeat_34" data-name=" Radial Repeat 34"><polygon class="cls-2" points="20.57 13.18 19.97 13.62 18.75 10.73 19.35 10.29 20.57 13.18"/></g><g id="_Radial_Repeat_35" data-name=" Radial Repeat 35"><polygon class="cls-2" points="22.32 11.91 21.69 12.32 20.63 9.37 21.25 8.96 22.32 11.91"/></g><g id="_Radial_Repeat_36" data-name=" Radial Repeat 36"><polygon class="cls-2" points="24.13 10.74 23.48 11.11 22.58 8.11 23.23 7.73 24.13 10.74"/></g><g id="_Radial_Repeat_37" data-name=" Radial Repeat 37"><polygon class="cls-2" points="26 9.66 25.34 10 24.6 6.95 25.26 6.61 26 9.66"/></g><g id="_Radial_Repeat_38" data-name=" Radial Repeat 38"><polygon class="cls-2" points="27.93 8.69 27.25 8.99 26.67 5.91 27.35 5.61 27.93 8.69"/></g><g id="_Radial_Repeat_39" data-name=" Radial Repeat 39"><polygon class="cls-2" points="29.91 7.82 29.21 8.09 28.8 4.97 29.5 4.71 29.91 7.82"/></g><g id="_Radial_Repeat_40" data-name=" Radial Repeat 40"><polygon class="cls-2" points="31.93 7.06 31.22 7.29 30.98 4.16 31.68 3.93 31.93 7.06"/></g><g id="_Radial_Repeat_41" data-name=" Radial Repeat 41"><polygon class="cls-2" points="33.98 6.41 33.27 6.6 33.19 3.46 33.91 3.27 33.98 6.41"/></g><g id="_Radial_Repeat_42" data-name=" Radial Repeat 42"><polygon class="cls-2" points="36.08 5.87 35.35 6.02 35.44 2.88 36.17 2.73 36.08 5.87"/></g><g id="_Radial_Repeat_43" data-name=" Radial Repeat 43"><polygon class="cls-2" points="38.19 5.44 37.46 5.55 37.72 2.43 38.46 2.32 38.19 5.44"/></g><g id="_Radial_Repeat_44" data-name=" Radial Repeat 44"><polygon class="cls-2" points="40.33 5.13 39.59 5.2 40.02 2.09 40.76 2.02 40.33 5.13"/></g><g id="_Radial_Repeat_45" data-name=" Radial Repeat 45"><polygon class="cls-2" points="42.48 4.93 41.74 4.96 42.34 1.88 43.08 1.85 42.48 4.93"/></g><g id="_Radial_Repeat_46" data-name=" Radial Repeat 46"><polygon class="cls-2" points="44.64 4.85 43.89 4.84 44.66 1.8 45.4 1.81 44.64 4.85"/></g><g id="_Radial_Repeat_47" data-name=" Radial Repeat 47"><polygon class="cls-2" points="46.8 4.89 46.05 4.84 46.98 1.84 47.72 1.89 46.8 4.89"/></g><g id="_Radial_Repeat_48" data-name=" Radial Repeat 48"><polygon class="cls-2" points="48.95 5.04 48.21 4.95 49.3 2 50.03 2.09 48.95 5.04"/></g><g id="_Radial_Repeat_49" data-name=" Radial Repeat 49"><polygon class="cls-2" points="51.09 5.3 50.36 5.17 51.6 2.29 52.34 2.42 51.09 5.3"/></g><g id="_Radial_Repeat_50" data-name=" Radial Repeat 50"><polygon class="cls-2" points="53.22 5.68 52.49 5.52 53.89 2.71 54.61 2.88 53.22 5.68"/></g><g id="_Radial_Repeat_51" data-name=" Radial Repeat 51"><polygon class="cls-2" points="55.32 6.18 54.61 5.97 56.15 3.24 56.87 3.45 55.32 6.18"/></g><g id="_Radial_Repeat_52" data-name=" Radial Repeat 52"><polygon class="cls-2" points="57.39 6.79 56.69 6.54 58.38 3.9 59.08 4.14 57.39 6.79"/></g><g id="_Radial_Repeat_53" data-name=" Radial Repeat 53"><polygon class="cls-2" points="59.43 7.51 58.74 7.22 60.57 4.67 61.26 4.96 59.43 7.51"/></g><g id="_Radial_Repeat_54" data-name=" Radial Repeat 54"><polygon class="cls-2" points="61.43 8.33 60.75 8.01 62.72 5.57 63.39 5.88 61.43 8.33"/></g><g id="_Radial_Repeat_55" data-name=" Radial Repeat 55"><polygon class="cls-2" points="63.37 9.26 62.72 8.91 64.81 6.57 65.46 6.92 63.37 9.26"/></g><g id="_Radial_Repeat_56" data-name=" Radial Repeat 56"><polygon class="cls-2" points="65.27 10.3 64.64 9.91 66.85 7.69 67.48 8.08 65.27 10.3"/></g><g id="_Radial_Repeat_57" data-name=" Radial Repeat 57"><polygon class="cls-2" points="67.11 11.43 66.49 11.01 68.82 8.91 69.43 9.33 67.11 11.43"/></g><g id="_Radial_Repeat_58" data-name=" Radial Repeat 58"><polygon class="cls-2" points="68.88 12.67 68.29 12.21 70.73 10.24 71.32 10.69 68.88 12.67"/></g><g id="_Radial_Repeat_59" data-name=" Radial Repeat 59"><polygon class="cls-2" points="70.58 13.99 70.02 13.51 72.56 11.67 73.12 12.15 70.58 13.99"/></g><g id="_Radial_Repeat_60" data-name=" Radial Repeat 60"><polygon class="cls-2" points="72.21 15.41 71.68 14.89 74.31 13.19 74.85 13.71 72.21 15.41"/></g><g id="_Radial_Repeat_61" data-name=" Radial Repeat 61"><polygon class="cls-2" points="73.77 16.91 73.26 16.37 75.98 14.81 76.49 15.36 73.77 16.91"/></g><g id="_Radial_Repeat_62" data-name=" Radial Repeat 62"><polygon class="cls-2" points="75.23 18.49 74.76 17.92 77.56 16.52 78.04 17.09 75.23 18.49"/></g><g id="_Radial_Repeat_63" data-name=" Radial Repeat 63"><polygon class="cls-2" points="76.62 20.15 76.17 19.56 79.05 18.3 79.49 18.9 76.62 20.15"/></g><g id="_Radial_Repeat_64" data-name=" Radial Repeat 64"><polygon class="cls-2" points="77.91 21.88 77.49 21.27 80.43 20.17 80.84 20.79 77.91 21.88"/></g><g id="_Radial_Repeat_65" data-name=" Radial Repeat 65"><polygon class="cls-2" points="79.1 23.68 78.72 23.04 81.72 22.1 82.1 22.74 79.1 23.68"/></g><g id="_Radial_Repeat_66" data-name=" Radial Repeat 66"><polygon class="cls-2" points="80.2 25.54 79.86 24.88 82.89 24.11 83.24 24.76 80.2 25.54"/></g><g id="_Radial_Repeat_67" data-name=" Radial Repeat 67"><polygon class="cls-2" points="81.2 27.46 80.89 26.78 83.96 26.17 84.27 26.84 81.2 27.46"/></g><g id="_Radial_Repeat_68" data-name=" Radial Repeat 68"><polygon class="cls-2" points="82.09 29.42 81.82 28.73 84.92 28.29 85.19 28.98 82.09 29.42"/></g><g id="_Radial_Repeat_69" data-name=" Radial Repeat 69"><polygon class="cls-2" points="82.87 31.43 82.64 30.73 85.76 30.45 86 31.16 82.87 31.43"/></g><g id="_Radial_Repeat_70" data-name=" Radial Repeat 70"><polygon class="cls-2" points="83.55 33.48 83.35 32.77 86.49 32.66 86.68 33.38 83.55 33.48"/></g><g id="_Radial_Repeat_71" data-name=" Radial Repeat 71"><polygon class="cls-2" points="84.11 35.57 83.95 34.84 87.09 34.9 87.25 35.63 84.11 35.57"/></g><g id="_Radial_Repeat_72" data-name=" Radial Repeat 72"><polygon class="cls-2" points="84.56 37.68 84.45 36.95 87.58 37.17 87.69 37.91 84.56 37.68"/></g><g id="_Radial_Repeat_73" data-name=" Radial Repeat 73"><polygon class="cls-2" points="84.9 39.81 84.82 39.07 87.94 39.47 88.01 40.21 84.9 39.81"/></g><g id="_Radial_Repeat_74" data-name=" Radial Repeat 74"><polygon class="cls-2" points="85.12 41.96 85.08 41.22 88.17 41.78 88.21 42.52 85.12 41.96"/></g><g id="_Radial_Repeat_75" data-name=" Radial Repeat 75"><polygon class="cls-2" points="85.23 44.12 85.23 43.38 88.28 44.1 88.28 44.85 85.23 44.12"/></g><g id="_Radial_Repeat_76" data-name=" Radial Repeat 76"><polygon class="cls-2" points="85.22 46.28 85.26 45.53 88.27 46.42 88.23 47.17 85.22 46.28"/></g><g id="_Radial_Repeat_77" data-name=" Radial Repeat 77"><polygon class="cls-2" points="85.1 48.43 85.18 47.69 88.13 48.74 88.05 49.48 85.1 48.43"/></g><g id="_Radial_Repeat_78" data-name=" Radial Repeat 78"><polygon class="cls-2" points="84.86 50.58 84.98 49.85 87.87 51.05 87.75 51.79 84.86 50.58"/></g><g id="_Radial_Repeat_79" data-name=" Radial Repeat 79"><polygon class="cls-2" points="84.5 52.71 84.66 51.98 87.48 53.34 87.33 54.07 84.5 52.71"/></g><g id="_Radial_Repeat_80" data-name=" Radial Repeat 80"><polygon class="cls-2" points="84.03 54.82 84.23 54.1 86.98 55.61 86.78 56.33 84.03 54.82"/></g><g id="_Radial_Repeat_81" data-name=" Radial Repeat 81"><polygon class="cls-2" points="83.45 56.9 83.68 56.19 86.35 57.85 86.11 58.55 83.45 56.9"/></g><g id="_Radial_Repeat_82" data-name=" Radial Repeat 82"><polygon class="cls-2" points="82.75 58.94 83.03 58.25 85.6 60.05 85.32 60.74 82.75 58.94"/></g><g id="_Radial_Repeat_83" data-name=" Radial Repeat 83"><polygon class="cls-2" points="81.95 60.95 82.26 60.27 84.73 62.2 84.42 62.88 81.95 60.95"/></g><g id="_Radial_Repeat_84" data-name=" Radial Repeat 84"><polygon class="cls-2" points="81.04 62.91 81.39 62.25 83.75 64.31 83.4 64.97 81.04 62.91"/></g><g id="_Radial_Repeat_85" data-name=" Radial Repeat 85"><polygon class="cls-2" points="80.03 64.81 80.41 64.17 82.66 66.36 82.28 67 80.03 64.81"/></g><g id="_Radial_Repeat_86" data-name=" Radial Repeat 86"><polygon class="cls-2" points="78.92 66.66 79.33 66.05 81.46 68.35 81.04 68.97 78.92 66.66"/></g><g id="_Radial_Repeat_87" data-name=" Radial Repeat 87"><polygon class="cls-2" points="77.7 68.45 78.15 67.86 80.15 70.27 79.7 70.86 77.7 68.45"/></g><g id="_Radial_Repeat_88" data-name=" Radial Repeat 88"><polygon class="cls-2" points="76.4 70.17 76.88 69.6 78.75 72.12 78.27 72.69 76.4 70.17"/></g><g id="_Radial_Repeat_89" data-name=" Radial Repeat 89"><polygon class="cls-2" points="75 71.82 75.51 71.28 77.24 73.89 76.73 74.43 75 71.82"/></g><g id="_Radial_Repeat_90" data-name=" Radial Repeat 90"><polygon class="cls-2" points="73.52 73.39 74.06 72.87 75.64 75.58 75.11 76.09 73.52 73.39"/></g><g id="_Radial_Repeat_91" data-name=" Radial Repeat 91"><polygon class="cls-2" points="71.95 74.87 72.52 74.39 73.96 77.18 73.39 77.66 71.95 74.87"/></g><g id="_Radial_Repeat_92" data-name=" Radial Repeat 92"><polygon class="cls-2" points="70.31 76.28 70.9 75.82 72.19 78.68 71.6 79.14 70.31 76.28"/></g><g id="_Radial_Repeat_93" data-name=" Radial Repeat 93"><polygon class="cls-2" points="68.59 77.59 69.21 77.17 70.34 80.09 69.73 80.51 68.59 77.59"/></g><g id="_Radial_Repeat_94" data-name=" Radial Repeat 94"><polygon class="cls-2" points="66.81 78.8 67.45 78.42 68.42 81.4 67.78 81.79 66.81 78.8"/></g><g id="_Radial_Repeat_95" data-name=" Radial Repeat 95"><polygon class="cls-2" points="64.96 79.92 65.62 79.57 66.43 82.6 65.78 82.95 64.96 79.92"/></g><g id="_Radial_Repeat_96" data-name=" Radial Repeat 96"><polygon class="cls-2" points="63.06 80.94 63.73 80.63 64.38 83.69 63.71 84.01 63.06 80.94"/></g><g id="_Radial_Repeat_97" data-name=" Radial Repeat 97"><polygon class="cls-2" points="61.1 81.86 61.79 81.58 62.28 84.68 61.59 84.96 61.1 81.86"/></g><g id="_Radial_Repeat_98" data-name=" Radial Repeat 98"><polygon class="cls-2" points="59.1 82.67 59.81 82.42 60.12 85.54 59.42 85.79 59.1 82.67"/></g><g id="_Radial_Repeat_99" data-name=" Radial Repeat 99"><polygon class="cls-2" points="57.06 83.37 57.77 83.16 57.92 86.29 57.21 86.5 57.06 83.37"/></g><g id="_Radial_Repeat_100" data-name=" Radial Repeat 100"><polygon class="cls-2" points="54.98 83.95 55.71 83.79 55.69 86.92 54.96 87.09 54.98 83.95"/></g><path class="cls-3" d="M72,27.11c-1-.88-1.94-1.84-2.94-2.73-.78-.69-1.37-1.79-2.74-1.31a7,7,0,0,1,0-1.29,2.09,2.09,0,0,0-.87-2.15c-.88-.75-1.67-1.6-2.51-2.41-.59-.56-1-1.4-2.14-.91v-.65A2.67,2.67,0,0,0,59,13.07c-1.57-.52-3.14-1.08-4.73-1.56a10,10,0,0,0-1.89-.18c-.19-.18-.46-.59-.82-.72q-3.11-1.08-6.27-2a1.49,1.49,0,0,0-1.09.18,4.76,4.76,0,0,0-2.09,2.46,2.07,2.07,0,0,1-1.56,1.29,30,30,0,0,0-3.22,1,3,3,0,0,0-1.24.89c-2.82,3.89-5.53,7.88-8.44,11.71a7.69,7.69,0,0,0-1.81,5.61,9.79,9.79,0,0,0,.77,3.42c2,4.23,3.85,8.55,6,12.73a5,5,0,0,1,0,4.71q-6.12,14.53-12.2,29.1a45,45,0,0,0,4.6,2.7L37.78,51.7a1.87,1.87,0,0,0,0-1.6c-2.65-5.84-5.33-11.66-7.88-17.54A4.59,4.59,0,0,1,30.19,28c2.29-3.43,4.6-6.86,6.78-10.36a5.57,5.57,0,0,1,3.69-2.86,4.17,4.17,0,0,1,2.16-.08c2.88.82,5.77,1.6,8.66,2.39a1.35,1.35,0,0,1,1.16,1.52,1.32,1.32,0,0,1-.41.8,10.33,10.33,0,0,1-1.09,1.29,2.59,2.59,0,0,1-1.24.69c-1.7.24-3.42.44-5.13.53a7,7,0,0,1-2.31-.36c-.88-.27-1.71-.7-2.79-1.16,1,3.85-.24,6.21-4.19,6.91,5.29,8.38,10.48,16.6,15.75,25h-6c-.63,0-.93.13-1.1.8-2.24,8.5-6.24,29.09-6.24,29.09s5.2-16.82,8.27-24.79a1.36,1.36,0,0,1,1-.94c2.13-.53,4.25-1.09,6.38-1.65.35-.09.71-.2,1.11-.32C52,47.68,49.31,41,46.65,34.28l.17-.09,12,10.67.15-.13c-1-2.17-2-4.34-3-6.55h10.4c-.74,3.9-1.45,7.69-2.2,11.47a1.35,1.35,0,0,1-.6.71c-1.71,1.29-3.39,2.61-5.16,3.81a2.61,2.61,0,0,0-1.17,2.11c-.4,3.55-5.16,24.38-7.07,33,3.42-.44,1.38-.19,1.38-.19S61.81,58,63.21,56A20.75,20.75,0,0,0,67,48.67c1.61-6.84,3.53-13.61,5.33-20.41A1,1,0,0,0,72,27.11ZM50.59,13.38a13.48,13.48,0,0,1-.7,1.49L44.2,13l.21-.47c1-1.88,1.07-1.91,3-1.26.84.28,1.68.58,2.53.82S50.81,12.78,50.59,13.38Zm-.18,15.24c-.64.13-1.47-.6-2.21-1L47.09,27c.64-1.17,1.21-2.28,1.85-3.35a1.09,1.09,0,0,1,.75-.5,5.2,5.2,0,0,0,4.63-3c.24-.46.8-.91.77-1.34a8.86,8.86,0,0,0-.7-2.37c-.07-.16-.37-.27-.58-.34-.52-.19-1.06-.35-1.69-.56a13.22,13.22,0,0,1,.66-1.49,1.1,1.1,0,0,1,1.41-.61c1.29.43,2.59.84,3.87,1.3a.83.83,0,0,1,.44.6,7.58,7.58,0,0,1-.5,2.14c-1,2.2-2.09,4.4-3.31,6.5a19,19,0,0,1-2.45,2.91C51.69,27.56,51.12,28.48,50.41,28.62ZM57,32.23c-.9-.56-1.86-1-2.88-1.59.81-1.58,1.6-3.13,2.4-4.67.65-1.27,1.4-2.49,2-3.8a5,5,0,0,1,3.25-3c.79.85,1.64,1.77,2.51,2.66a1,1,0,0,1,.17,1.44c-2,3-3.54,6.25-6.22,8.75C57.75,32.4,57.49,32.55,57,32.23Zm11.67-1.4a3.29,3.29,0,0,0-.64,1,7.15,7.15,0,0,1-4.29,3.61,1.05,1.05,0,0,1-.74.05c-.87-.38-1.71-.82-2.63-1.28.3-.47.56-.9.83-1.31L65.75,26c.53-.8.91-.86,1.59-.17s1.81,1.5,1.84,2.89a2.79,2.79,0,0,1-.54,2.11Z"/><path class="cls-4" d="M24,81.59,22.89,81q5.76-13.78,11.55-27.56A7.22,7.22,0,0,0,35,49l.89,2C32.38,60,24,81.59,24,81.59ZM57.6,65.11c.87-4.12,1.53-7.38,1.67-8.65.06-.53.12-.57.3-.69,1-.66,1.93-1.35,2.86-2.05l-.8,1.13c-.63.81-2.2,5-4.07,10.26ZM45.32,53.54h5.09l-2.53.64a11,11,0,0,0-3,1.2C45,54.77,45.17,54.15,45.32,53.54ZM38.54,28.41A5.93,5.93,0,0,0,42,23.48a8.86,8.86,0,0,0,2.6.44h.32l1.73-.12c-.26.46-.51.92-.76,1.4l-1.48,2.7L46.53,29l.79.41a4.27,4.27,0,0,1,.51.3,4.64,4.64,0,0,0,2.43.89,2.57,2.57,0,0,0,.55-.06,3.35,3.35,0,0,0,1.4-.66l-.8,1.55,1.72.93.92.49,1.87,1a2.86,2.86,0,0,0,1.55.48h.39l-.39.61,2.32,1.14H53l.58,1.28-6.42-5.68-3,1.57L48.36,44Zm27.37,7.78a12.34,12.34,0,0,0,2.71-2.28c-.2.76-.41,1.52-.61,2.28Z"/></svg>