<svg xmlns="http://www.w3.org/2000/svg" xmlns:xlink="http://www.w3.org/1999/xlink" width="500" zoomAndPan="magnify" viewBox="0 0 375 374.999991" height="500" preserveAspectRatio="xMidYMid meet" version="1.0"><path fill="#ffffff" d="M 257.789062 185.601562 L 146.558594 121.386719 C 143.734375 119.757812 140.261719 119.757812 137.4375 121.386719 C 134.613281 123.011719 132.878906 126.023438 132.878906 129.285156 L 132.878906 257.726562 C 132.878906 260.984375 134.613281 263.996094 137.4375 265.625 C 138.847656 266.449219 140.421875 266.851562 141.996094 266.851562 C 143.574219 266.851562 145.148438 266.441406 146.558594 265.625 L 257.789062 201.410156 C 260.617188 199.777344 262.347656 196.769531 262.347656 193.507812 C 262.347656 190.25 260.609375 187.234375 257.789062 185.601562 Z M 257.789062 185.601562 " fill-opacity="1" fill-rule="nonzero"/><path fill="#ffffff" d="M 187.339844 374.796875 C 83.980469 374.796875 -0.109375 290.707031 -0.109375 187.347656 C -0.109375 83.984375 83.980469 -0.105469 187.339844 -0.105469 C 290.703125 -0.105469 374.796875 83.984375 374.796875 187.347656 C 374.796875 290.707031 290.703125 374.796875 187.339844 374.796875 Z M 187.339844 18.382812 C 94.175781 18.382812 18.378906 94.179688 18.378906 187.347656 C 18.378906 280.511719 94.175781 356.308594 187.339844 356.308594 C 280.507812 356.308594 356.308594 280.507812 356.308594 187.347656 C 356.308594 94.179688 280.507812 18.382812 187.339844 18.382812 Z M 187.339844 18.382812 " fill-opacity="1" fill-rule="nonzero"/></svg>
