<svg width="217" height="31" viewBox="0 0 217 31" fill="none" xmlns="http://www.w3.org/2000/svg">
<g clip-path="url(#clip0)">
<path d="M29.4568 29H7.30563L0 20.8973L6.8411 13.7687H12.7325L6.12756 20.6522L9.89799 24.8256H25.6863L29.4568 29Z" fill="#FF284C"/>
<path d="M9.61847 19.9416L17.3945 11.8389H8.66774L11.7315 8.64687H20.2231L22.1 6.69041H9.11161L6.55469 3H30.749L12.0789 22.7184L9.61847 19.9416Z" fill="white"/>
<path d="M14.375 23.1327L24.897 11.8389H29.437L19.1591 23.1327H14.375Z" fill="white"/>
</g>
<path d="M47.585 23.3424H42.911C42.05 23.3424 41.3462 23.072 40.7995 22.5312C40.2665 21.9765 40 21.2624 40 20.3888V11.1536C40 10.28 40.2665 9.57281 40.7995 9.03201C41.3462 8.47735 42.05 8.20001 42.911 8.20001H47.585C48.446 8.20001 49.143 8.47735 49.676 9.03201C50.2227 9.57281 50.496 10.28 50.496 11.1536V13.5664H47.544V11.736C47.544 11.2645 47.3117 11.0288 46.847 11.0288H43.649C43.1843 11.0288 42.952 11.2645 42.952 11.736V19.8064C42.952 20.2779 43.1843 20.5136 43.649 20.5136H46.847C47.3117 20.5136 47.544 20.2779 47.544 19.8064V17.976H50.496V20.3888C50.496 21.2624 50.2227 21.9765 49.676 22.5312C49.143 23.072 48.446 23.3424 47.585 23.3424Z" fill="white"/>
<path d="M59.1275 23.2592H56.1755V18.08L51.6245 8.28321H54.8635L57.6515 14.6896L60.4395 8.28321H63.6785L59.1275 18.08V23.2592Z" fill="white"/>
<path d="M65.413 8.28321H72.875C73.736 8.28321 74.433 8.56055 74.966 9.11521C75.5126 9.65601 75.7859 10.3632 75.7859 11.2368V13.3584C75.7859 14.3291 75.3554 15.0779 74.4944 15.6048C75.4648 16.0901 75.95 16.8389 75.95 17.8512V20.3056C75.95 21.1792 75.6766 21.8933 75.1299 22.448C74.5969 22.9888 73.8999 23.2592 73.0389 23.2592H65.413V8.28321ZM68.365 14.2736H72.137C72.4103 14.2736 72.5948 14.232 72.6904 14.1488C72.7861 14.0517 72.834 13.8576 72.834 13.5664V11.7776C72.834 11.3061 72.6016 11.0704 72.137 11.0704H68.365V14.2736ZM68.365 20.472H72.3009C72.7656 20.472 72.9979 20.2363 72.9979 19.7648V17.6016C72.9979 17.3243 72.9296 17.144 72.7929 17.0608C72.6563 16.9776 72.4103 16.936 72.055 16.936H68.365V20.472Z" fill="white"/>
<path d="M78.7259 8.28321H88.3814V11.112H81.6779V14.1904H87.1104V17.0192H81.6779V20.4304H88.3814V23.2592H78.7259V8.28321Z" fill="white"/>
<path d="M101.863 23.2592H98.6859L96.3079 17.7056H93.9299V23.2592H90.9779V8.28321H98.5014C99.3624 8.28321 100.059 8.56055 100.592 9.11521C101.139 9.65601 101.412 10.3632 101.412 11.2368V14.752C101.412 15.4592 101.228 16.0624 100.859 16.5616C100.504 17.0608 100.018 17.4005 99.4034 17.5808L101.863 23.2592ZM98.4604 14.2112V11.8192C98.4604 11.3477 98.2281 11.112 97.7634 11.112H93.9299V14.9184H97.7634C98.2281 14.9184 98.4604 14.6827 98.4604 14.2112Z" fill="white"/>
<path d="M104.311 23.2592V8.28321H113.966V11.112H107.263V14.3152H112.695V17.144H107.263V23.2592H104.311Z" fill="white"/>
<path d="M116.202 23.2592V8.28321H119.154V23.2592H116.202Z" fill="white"/>
<path d="M134 6.14655V31H210.308L216.269 24.5862V0H139.962L134 6.14655Z" fill="#FF284C"/>
<path d="M150.245 20.2121L148.995 22.2714H142.522V19.8807H146.944L147.169 19.4968V18.1356L146.944 17.7343H143.595L142.346 15.6754V10.4051L143.595 8.34624H148.931V10.7367H145.646L145.406 11.1207V13.9999L145.646 14.4013H148.995L150.245 16.4604" fill="black"/>
<path d="M172.362 22.2714H169.362V14.1223L166.909 22.2714H166.44L163.971 14.1223V22.2714H161.83V8.34618H164.94L167.096 14L169.268 8.34618H172.362" fill="black"/>
<path d="M182.369 20.1946L181.105 22.2714H175.207L173.943 20.1946V8.34618H177.038V19.4966L177.281 19.8807H179.031L179.274 19.4966V8.34618H182.369" fill="black"/>
<path d="M189.049 11.1208L188.829 10.737H186.966V13.9999H188.812L189.049 13.5989V11.1208ZM192.902 22.2714H189.475L187.107 16.3908H186.966V22.2714H183.949V8.34618H190.85L192.08 10.4053L192.066 14.3143L190.85 16.3908H190.613" fill="black"/>
<path d="M156.564 10.7369L156.778 11.1208V14H154.769V13.2027V11.1208L154.984 10.7369H156.564ZM159.723 10.4053L158.527 8.34618H153.021L151.824 10.4053L151.825 10.5791H151.824V22.2714H154.754V16.3907H156.778V22.2714H156.794H159.708H159.723V10.7322H159.722" fill="black"/>
<path d="M199.009 10.7369L199.238 11.1208V14H197.094V13.2027V11.1208L197.325 10.7369H199.009ZM202.379 10.4053L201.104 8.34618H195.229L193.953 10.4053L193.955 10.5791H193.953V22.2714H197.079V16.3907H199.238V22.2714H199.255H202.364H202.379V10.7322H202.377" fill="black"/>
<path d="M207.119 20.2198V8.34618H204.486V22.2714H206.048" fill="black"/>
<path d="M179.734 18.2098C179.93 17.9946 180.124 17.7808 180.261 17.6296C180.148 17.7548 179.977 17.9425 179.734 18.2098Z" fill="#A5856F"/>
<defs>
<clipPath id="clip0">
<rect width="30.75" height="26" fill="white" transform="translate(0 3)"/>
</clipPath>
</defs>
</svg>
