<svg id="Layer_1" data-name="Layer 1" xmlns="http://www.w3.org/2000/svg" viewBox="0 0 318.98 90"><defs><style>.cls-1{fill:#c3c3c3;}.cls-2{fill:#7f7f7f;}.cls-3{fill:#e43800;}.cls-4{fill:#9d0000;}</style></defs><circle class="cls-1" cx="45" cy="45" r="45"/><path class="cls-2" d="M14.46,49.17l-2.86.26L14.17,46l-.06-.6L8,46l.1,1.09L11,46.78,8.39,50.21l0,.61,6.12-.57Zm4.38,12.1-2.5,1.41.93-4.17L17,58l-5.34,3,.54,1,2.49-1.41-.93,4.18.3.52,5.34-3Zm-3.43-25L14.35,36l-.43,1.84-1.39-.32.28-1.23-1.06-.25-.28,1.23L10.07,37l.43-1.85-1.07-.24-.81,3.52,6,1.38ZM15,52.14,9.1,53.73l.45,1.67,5.93-1.6ZM9.2,43.07l5,.4.14-1.72-5-.4.1-1.26L8.35,40,8,44.24l1.08.09Zm66.59.73-.07,3.61,1.09,0,0-1.89,1.43,0,0,1.27,1.09,0,0-1.27,1.43,0,0,1.9,1.09,0,.08-3.61Zm-.65-5.45-.08,0,.34,1.83a2.42,2.42,0,0,0,2.33,1.94,2.5,2.5,0,0,0,.47,0l3.68-.7-.32-1.7L77,40.57a.35.35,0,0,1-.29-.07.34.34,0,0,1-.17-.25l-.08-.4,5-.94-.32-1.69-4.57.87a.4.4,0,0,1-.3-.06.41.41,0,0,1-.17-.26l-.07-.4,5-.94-.33-1.69-6,1.15.35,1.82A2.67,2.67,0,0,0,75.14,38.35ZM19,28.51l-2.11-1.38.22-.34a.37.37,0,0,1,.25-.17.38.38,0,0,1,.31.05l1.78,1.16.93-1.44L18.3,25a.83.83,0,0,0-.65-.12.92.92,0,0,0-.23.09.84.84,0,0,0-.05-.17,1.61,1.61,0,0,0-.61-.8l-.29-.19a1.51,1.51,0,0,0-2.06.44L12.9,26.6,18.05,30Zm-2.8-2.31-.22.33-1.2-.78.22-.34a.37.37,0,0,1,.25-.17.39.39,0,0,1,.3.05l.53.35a.37.37,0,0,1,.17.25A.37.37,0,0,1,16.18,26.2Zm-4.67,7,2.91,1.22a1.41,1.41,0,0,0,1.14,0,1.39,1.39,0,0,0,.81-.8l.49-1.17a1.53,1.53,0,0,0,.05-1.06,1.35,1.35,0,0,0-.84-.89l-2-.82-.91,2.17,1,.42.24-.58,1,.4a.37.37,0,0,1,.22.53.35.35,0,0,1-.22.21.32.32,0,0,1-.3,0l-2.92-1.22A.38.38,0,0,1,12,31.4a.39.39,0,0,1,0-.3l.25-.59c.07-.17.19-.31.55-.2l.19.05.42-1-.23-.08a1.37,1.37,0,0,0-1.94.8l-.49,1.17a1.44,1.44,0,0,0,0,1.15A1.49,1.49,0,0,0,11.51,33.21ZM79.89,53.07,75,51.81l-.43,1.68,4.89,1.25L79.15,56l1.06.27,1.05-4.11-1.06-.27ZM71.83,61a1.45,1.45,0,0,0-1,.63l-.7,1a1.5,1.5,0,0,0,.4,2.06l3.86,2.59,1-1.42-3.86-2.59a.43.43,0,0,1-.17-.26.36.36,0,0,1,.07-.3.34.34,0,0,1,.25-.17.35.35,0,0,1,.3.06l3.86,2.59,1-1.43L73,61.23A1.43,1.43,0,0,0,71.83,61Zm-.19,6.9a1.51,1.51,0,0,0-1-.41l-2-.07a.4.4,0,0,1-.29-.11.41.41,0,0,1-.17-.28c0-.1.08-.21.15-.29a.51.51,0,0,1,.28-.15.18.18,0,0,1,.21.07l.06,0,.16.19.77-.8L69.59,66a1.55,1.55,0,0,0-1.07-.49,1.5,1.5,0,0,0-1,.54l-.44.46a1.39,1.39,0,0,0-.4,1.06,1.44,1.44,0,0,0,.45,1l.23.22a1.54,1.54,0,0,0,1.05.41l2,.07a.45.45,0,0,1,.3.11.41.41,0,0,1,.16.29.49.49,0,0,1-.17.31c-.11.12-.25.2-.57,0l-.16-.12-.74.78.19.15a1.63,1.63,0,0,0,1,.46,1.42,1.42,0,0,0,1-.51l.44-.46a1.47,1.47,0,0,0,.41-1.07,1.42,1.42,0,0,0-.46-1ZM67.58,72.8l-3.08-4-1.37,1,3.09,4-1,.77.67.86,3.36-2.59L68.58,72Zm5.77-15.86,2.31,1-.16.37a.35.35,0,0,1-.22.21.34.34,0,0,1-.31,0l-2-.85-.68,1.58,2.26,1a.8.8,0,0,0,.66,0,.72.72,0,0,0,.21-.12.8.8,0,0,0,.08.16,1.52,1.52,0,0,0,.73.69l.32.14a1.51,1.51,0,0,0,.58.12,1.4,1.4,0,0,0,.56-.11,1.43,1.43,0,0,0,.82-.78l1.1-2.53L74,55.37Zm3.15,1.82.16-.37L78,59l-.16.37a.35.35,0,0,1-.22.21.39.39,0,0,1-.3,0l-.58-.25a.41.41,0,0,1-.22-.23A.35.35,0,0,1,76.5,58.76Zm-.73.37Zm-46.6-45.2L28.09,12.1,26.61,13l1.08,1.83a.35.35,0,0,1,0,.3.37.37,0,0,1-.18.25.38.38,0,0,1-.31,0,.42.42,0,0,1-.25-.18l-1.07-1.83-1.49.87,1.08,1.83a1.38,1.38,0,0,0,1.83.62l1.3,2.2L30.12,18l-1.3-2.21A1.36,1.36,0,0,0,29.17,13.93ZM15.81,67.62,16.89,69l4.77-3.86-1.09-1.34Zm1.28-46.83,4.54,4.13,1.16-1.27-4.54-4.14Zm6.68-4.74-.69-.85L19.8,17.91l.7.84,1-.8,3.22,3.89L26,20.74,22.8,16.85Z"/><g id="_Radial_Repeat_" data-name="&lt;Radial Repeat&gt;"><polygon class="cls-2" points="18.82 75.44 19.38 75.94 16.79 77.72 16.24 77.22 18.82 75.44"/></g><g id="_Radial_Repeat_2" data-name="&lt;Radial Repeat&gt;"><polygon class="cls-2" points="17.23 73.99 17.75 74.52 15.08 76.15 14.55 75.62 17.23 73.99"/></g><g id="_Radial_Repeat_3" data-name="&lt;Radial Repeat&gt;"><polygon class="cls-2" points="15.71 72.45 16.21 73.01 13.45 74.5 12.95 73.94 15.71 72.45"/></g><g id="_Radial_Repeat_4" data-name="&lt;Radial Repeat&gt;"><polygon class="cls-2" points="14.28 70.83 14.74 71.42 11.91 72.75 11.44 72.17 14.28 70.83"/></g><g id="_Radial_Repeat_5" data-name="&lt;Radial Repeat&gt;"><polygon class="cls-2" points="12.94 69.14 13.37 69.75 10.47 70.93 10.04 70.33 12.94 69.14"/></g><g id="_Radial_Repeat_6" data-name="&lt;Radial Repeat&gt;"><polygon class="cls-2" points="11.69 67.38 12.09 68.01 9.13 69.04 8.73 68.41 11.69 67.38"/></g><g id="_Radial_Repeat_7" data-name="&lt;Radial Repeat&gt;"><polygon class="cls-2" points="10.54 65.56 10.9 66.2 7.89 67.07 7.52 66.42 10.54 65.56"/></g><g id="_Radial_Repeat_8" data-name="&lt;Radial Repeat&gt;"><polygon class="cls-2" points="9.48 63.67 9.81 64.34 6.76 65.04 6.43 64.37 9.48 63.67"/></g><g id="_Radial_Repeat_9" data-name="&lt;Radial Repeat&gt;"><polygon class="cls-2" points="8.53 61.73 8.82 62.41 5.74 62.95 5.44 62.27 8.53 61.73"/></g><g id="_Radial_Repeat_10" data-name="&lt;Radial Repeat&gt;"><polygon class="cls-2" points="7.69 59.74 7.94 60.44 4.83 60.81 4.57 60.12 7.69 59.74"/></g><g id="_Radial_Repeat_11" data-name="&lt;Radial Repeat&gt;"><polygon class="cls-2" points="6.95 57.71 7.17 58.43 4.04 58.63 3.82 57.92 6.95 57.71"/></g><g id="_Radial_Repeat_12" data-name="&lt;Radial Repeat&gt;"><polygon class="cls-2" points="6.32 55.65 6.5 56.37 3.37 56.41 3.19 55.68 6.32 55.65"/></g><g id="_Radial_Repeat_13" data-name="&lt;Radial Repeat&gt;"><polygon class="cls-2" points="5.81 53.55 5.95 54.28 2.82 54.15 2.68 53.42 5.81 53.55"/></g><g id="_Radial_Repeat_14" data-name="&lt;Radial Repeat&gt;"><polygon class="cls-2" points="5.41 51.43 5.51 52.16 2.39 51.86 2.29 51.13 5.41 51.43"/></g><g id="_Radial_Repeat_15" data-name="&lt;Radial Repeat&gt;"><polygon class="cls-2" points="5.12 49.29 5.18 50.03 2.08 49.56 2.02 48.82 5.12 49.29"/></g><g id="_Radial_Repeat_16" data-name="&lt;Radial Repeat&gt;"><polygon class="cls-2" points="4.95 47.14 4.97 47.88 1.9 47.24 1.88 46.5 4.95 47.14"/></g><g id="_Radial_Repeat_17" data-name="&lt;Radial Repeat&gt;"><polygon class="cls-2" points="4.89 44.98 4.88 45.72 1.84 44.92 1.86 44.18 4.89 44.98"/></g><g id="_Radial_Repeat_18" data-name="&lt;Radial Repeat&gt;"><polygon class="cls-2" points="4.95 42.82 4.89 43.56 1.91 42.6 1.97 41.86 4.95 42.82"/></g><g id="_Radial_Repeat_19" data-name="&lt;Radial Repeat&gt;"><polygon class="cls-2" points="5.13 40.67 5.03 41.41 2.1 40.28 2.2 39.55 5.13 40.67"/></g><g id="_Radial_Repeat_20" data-name="&lt;Radial Repeat&gt;"><polygon class="cls-2" points="5.42 38.53 5.28 39.26 2.42 37.98 2.56 37.25 5.42 38.53"/></g><g id="_Radial_Repeat_21" data-name="&lt;Radial Repeat&gt;"><polygon class="cls-2" points="5.83 36.41 5.65 37.13 2.86 35.7 3.04 34.98 5.83 36.41"/></g><g id="_Radial_Repeat_22" data-name="&lt;Radial Repeat&gt;"><polygon class="cls-2" points="6.35 34.31 6.13 35.02 3.42 33.45 3.64 32.73 6.35 34.31"/></g><g id="_Radial_Repeat_23" data-name="&lt;Radial Repeat&gt;"><polygon class="cls-2" points="6.98 32.25 6.72 32.95 4.1 31.23 4.36 30.53 6.98 32.25"/></g><g id="_Radial_Repeat_24" data-name="&lt;Radial Repeat&gt;"><polygon class="cls-2" points="7.72 30.22 7.43 30.9 4.9 29.05 5.19 28.36 7.72 30.22"/></g><g id="_Radial_Repeat_25" data-name="&lt;Radial Repeat&gt;"><polygon class="cls-2" points="8.57 28.23 8.24 28.9 5.82 26.91 6.15 26.24 8.57 28.23"/></g><g id="_Radial_Repeat_26" data-name="&lt;Radial Repeat&gt;"><polygon class="cls-2" points="9.53 26.3 9.16 26.95 6.85 24.83 7.21 24.18 9.53 26.3"/></g><g id="_Radial_Repeat_27" data-name="&lt;Radial Repeat&gt;"><polygon class="cls-2" points="10.58 24.41 10.19 25.04 7.99 22.8 8.39 22.17 10.58 24.41"/></g><g id="_Radial_Repeat_28" data-name="&lt;Radial Repeat&gt;"><polygon class="cls-2" points="11.74 22.59 11.31 23.2 9.24 20.84 9.67 20.24 11.74 22.59"/></g><g id="_Radial_Repeat_29" data-name="&lt;Radial Repeat&gt;"><polygon class="cls-2" points="12.99 20.83 12.53 21.41 10.59 18.95 11.05 18.37 12.99 20.83"/></g><g id="_Radial_Repeat_30" data-name="&lt;Radial Repeat&gt;"><polygon class="cls-2" points="14.34 19.14 13.85 19.7 12.04 17.14 12.53 16.58 14.34 19.14"/></g><g id="_Radial_Repeat_31" data-name="&lt;Radial Repeat&gt;"><polygon class="cls-2" points="15.78 17.53 15.25 18.06 13.59 15.4 14.11 14.87 15.78 17.53"/></g><g id="_Radial_Repeat_32" data-name="&lt;Radial Repeat&gt;"><polygon class="cls-2" points="17.3 15.99 16.75 16.5 15.22 13.75 15.77 13.25 17.3 15.99"/></g><g id="_Radial_Repeat_33" data-name="&lt;Radial Repeat&gt;"><polygon class="cls-2" points="18.89 14.54 18.32 15.02 16.94 12.2 17.52 11.73 18.89 14.54"/></g><g id="_Radial_Repeat_34" data-name="&lt;Radial Repeat&gt;"><polygon class="cls-2" points="20.57 13.18 19.97 13.62 18.75 10.73 19.35 10.29 20.57 13.18"/></g><g id="_Radial_Repeat_35" data-name="&lt;Radial Repeat&gt;"><polygon class="cls-2" points="22.32 11.91 21.69 12.32 20.63 9.37 21.25 8.96 22.32 11.91"/></g><g id="_Radial_Repeat_36" data-name="&lt;Radial Repeat&gt;"><polygon class="cls-2" points="24.13 10.74 23.48 11.11 22.58 8.11 23.23 7.73 24.13 10.74"/></g><g id="_Radial_Repeat_37" data-name="&lt;Radial Repeat&gt;"><polygon class="cls-2" points="26 9.66 25.34 10 24.6 6.95 25.26 6.61 26 9.66"/></g><g id="_Radial_Repeat_38" data-name="&lt;Radial Repeat&gt;"><polygon class="cls-2" points="27.93 8.69 27.25 8.99 26.67 5.91 27.35 5.61 27.93 8.69"/></g><g id="_Radial_Repeat_39" data-name="&lt;Radial Repeat&gt;"><polygon class="cls-2" points="29.91 7.82 29.21 8.09 28.8 4.97 29.5 4.71 29.91 7.82"/></g><g id="_Radial_Repeat_40" data-name="&lt;Radial Repeat&gt;"><polygon class="cls-2" points="31.93 7.06 31.22 7.29 30.98 4.16 31.68 3.93 31.93 7.06"/></g><g id="_Radial_Repeat_41" data-name="&lt;Radial Repeat&gt;"><polygon class="cls-2" points="33.98 6.41 33.27 6.6 33.19 3.46 33.91 3.27 33.98 6.41"/></g><g id="_Radial_Repeat_42" data-name="&lt;Radial Repeat&gt;"><polygon class="cls-2" points="36.08 5.87 35.35 6.02 35.44 2.88 36.17 2.73 36.08 5.87"/></g><g id="_Radial_Repeat_43" data-name="&lt;Radial Repeat&gt;"><polygon class="cls-2" points="38.19 5.44 37.46 5.55 37.72 2.43 38.46 2.32 38.19 5.44"/></g><g id="_Radial_Repeat_44" data-name="&lt;Radial Repeat&gt;"><polygon class="cls-2" points="40.33 5.13 39.59 5.2 40.02 2.09 40.76 2.02 40.33 5.13"/></g><g id="_Radial_Repeat_45" data-name="&lt;Radial Repeat&gt;"><polygon class="cls-2" points="42.48 4.93 41.74 4.96 42.34 1.88 43.08 1.85 42.48 4.93"/></g><g id="_Radial_Repeat_46" data-name="&lt;Radial Repeat&gt;"><polygon class="cls-2" points="44.64 4.85 43.89 4.84 44.66 1.8 45.4 1.81 44.64 4.85"/></g><g id="_Radial_Repeat_47" data-name="&lt;Radial Repeat&gt;"><polygon class="cls-2" points="46.8 4.89 46.05 4.84 46.98 1.84 47.72 1.89 46.8 4.89"/></g><g id="_Radial_Repeat_48" data-name="&lt;Radial Repeat&gt;"><polygon class="cls-2" points="48.95 5.04 48.21 4.95 49.3 2 50.03 2.09 48.95 5.04"/></g><g id="_Radial_Repeat_49" data-name="&lt;Radial Repeat&gt;"><polygon class="cls-2" points="51.09 5.3 50.36 5.17 51.6 2.29 52.34 2.42 51.09 5.3"/></g><g id="_Radial_Repeat_50" data-name="&lt;Radial Repeat&gt;"><polygon class="cls-2" points="53.22 5.68 52.49 5.52 53.89 2.71 54.61 2.88 53.22 5.68"/></g><g id="_Radial_Repeat_51" data-name="&lt;Radial Repeat&gt;"><polygon class="cls-2" points="55.32 6.18 54.61 5.97 56.15 3.24 56.87 3.45 55.32 6.18"/></g><g id="_Radial_Repeat_52" data-name="&lt;Radial Repeat&gt;"><polygon class="cls-2" points="57.39 6.79 56.69 6.54 58.38 3.9 59.08 4.14 57.39 6.79"/></g><g id="_Radial_Repeat_53" data-name="&lt;Radial Repeat&gt;"><polygon class="cls-2" points="59.43 7.51 58.74 7.22 60.57 4.67 61.26 4.96 59.43 7.51"/></g><g id="_Radial_Repeat_54" data-name="&lt;Radial Repeat&gt;"><polygon class="cls-2" points="61.43 8.33 60.75 8.01 62.72 5.57 63.39 5.88 61.43 8.33"/></g><g id="_Radial_Repeat_55" data-name="&lt;Radial Repeat&gt;"><polygon class="cls-2" points="63.37 9.26 62.72 8.91 64.81 6.57 65.46 6.92 63.37 9.26"/></g><g id="_Radial_Repeat_56" data-name="&lt;Radial Repeat&gt;"><polygon class="cls-2" points="65.27 10.3 64.64 9.91 66.85 7.69 67.48 8.08 65.27 10.3"/></g><g id="_Radial_Repeat_57" data-name="&lt;Radial Repeat&gt;"><polygon class="cls-2" points="67.11 11.43 66.49 11.01 68.82 8.91 69.43 9.33 67.11 11.43"/></g><g id="_Radial_Repeat_58" data-name="&lt;Radial Repeat&gt;"><polygon class="cls-2" points="68.88 12.67 68.29 12.21 70.73 10.24 71.32 10.69 68.88 12.67"/></g><g id="_Radial_Repeat_59" data-name="&lt;Radial Repeat&gt;"><polygon class="cls-2" points="70.58 13.99 70.02 13.51 72.56 11.67 73.12 12.15 70.58 13.99"/></g><g id="_Radial_Repeat_60" data-name="&lt;Radial Repeat&gt;"><polygon class="cls-2" points="72.21 15.41 71.68 14.89 74.31 13.19 74.85 13.71 72.21 15.41"/></g><g id="_Radial_Repeat_61" data-name="&lt;Radial Repeat&gt;"><polygon class="cls-2" points="73.77 16.91 73.26 16.37 75.98 14.81 76.49 15.36 73.77 16.91"/></g><g id="_Radial_Repeat_62" data-name="&lt;Radial Repeat&gt;"><polygon class="cls-2" points="75.23 18.49 74.76 17.92 77.56 16.52 78.04 17.09 75.23 18.49"/></g><g id="_Radial_Repeat_63" data-name="&lt;Radial Repeat&gt;"><polygon class="cls-2" points="76.62 20.15 76.17 19.56 79.05 18.3 79.49 18.9 76.62 20.15"/></g><g id="_Radial_Repeat_64" data-name="&lt;Radial Repeat&gt;"><polygon class="cls-2" points="77.91 21.88 77.49 21.27 80.43 20.17 80.84 20.79 77.91 21.88"/></g><g id="_Radial_Repeat_65" data-name="&lt;Radial Repeat&gt;"><polygon class="cls-2" points="79.1 23.68 78.72 23.04 81.72 22.1 82.1 22.74 79.1 23.68"/></g><g id="_Radial_Repeat_66" data-name="&lt;Radial Repeat&gt;"><polygon class="cls-2" points="80.2 25.54 79.86 24.88 82.89 24.11 83.24 24.76 80.2 25.54"/></g><g id="_Radial_Repeat_67" data-name="&lt;Radial Repeat&gt;"><polygon class="cls-2" points="81.2 27.46 80.89 26.78 83.96 26.17 84.27 26.84 81.2 27.46"/></g><g id="_Radial_Repeat_68" data-name="&lt;Radial Repeat&gt;"><polygon class="cls-2" points="82.09 29.42 81.82 28.73 84.92 28.29 85.19 28.98 82.09 29.42"/></g><g id="_Radial_Repeat_69" data-name="&lt;Radial Repeat&gt;"><polygon class="cls-2" points="82.87 31.43 82.64 30.73 85.76 30.45 86 31.16 82.87 31.43"/></g><g id="_Radial_Repeat_70" data-name="&lt;Radial Repeat&gt;"><polygon class="cls-2" points="83.55 33.48 83.35 32.77 86.49 32.66 86.68 33.38 83.55 33.48"/></g><g id="_Radial_Repeat_71" data-name="&lt;Radial Repeat&gt;"><polygon class="cls-2" points="84.11 35.57 83.95 34.84 87.09 34.9 87.25 35.63 84.11 35.57"/></g><g id="_Radial_Repeat_72" data-name="&lt;Radial Repeat&gt;"><polygon class="cls-2" points="84.56 37.68 84.45 36.95 87.58 37.17 87.69 37.91 84.56 37.68"/></g><g id="_Radial_Repeat_73" data-name="&lt;Radial Repeat&gt;"><polygon class="cls-2" points="84.9 39.81 84.82 39.07 87.94 39.47 88.01 40.21 84.9 39.81"/></g><g id="_Radial_Repeat_74" data-name="&lt;Radial Repeat&gt;"><polygon class="cls-2" points="85.12 41.96 85.08 41.22 88.17 41.78 88.21 42.52 85.12 41.96"/></g><g id="_Radial_Repeat_75" data-name="&lt;Radial Repeat&gt;"><polygon class="cls-2" points="85.23 44.12 85.23 43.38 88.28 44.1 88.28 44.85 85.23 44.12"/></g><g id="_Radial_Repeat_76" data-name="&lt;Radial Repeat&gt;"><polygon class="cls-2" points="85.22 46.28 85.26 45.53 88.27 46.42 88.23 47.17 85.22 46.28"/></g><g id="_Radial_Repeat_77" data-name="&lt;Radial Repeat&gt;"><polygon class="cls-2" points="85.1 48.43 85.18 47.69 88.13 48.74 88.05 49.48 85.1 48.43"/></g><g id="_Radial_Repeat_78" data-name="&lt;Radial Repeat&gt;"><polygon class="cls-2" points="84.86 50.58 84.98 49.85 87.87 51.05 87.75 51.79 84.86 50.58"/></g><g id="_Radial_Repeat_79" data-name="&lt;Radial Repeat&gt;"><polygon class="cls-2" points="84.5 52.71 84.66 51.98 87.48 53.34 87.33 54.07 84.5 52.71"/></g><g id="_Radial_Repeat_80" data-name="&lt;Radial Repeat&gt;"><polygon class="cls-2" points="84.03 54.82 84.23 54.1 86.98 55.61 86.78 56.33 84.03 54.82"/></g><g id="_Radial_Repeat_81" data-name="&lt;Radial Repeat&gt;"><polygon class="cls-2" points="83.45 56.9 83.68 56.19 86.35 57.85 86.11 58.55 83.45 56.9"/></g><g id="_Radial_Repeat_82" data-name="&lt;Radial Repeat&gt;"><polygon class="cls-2" points="82.75 58.94 83.03 58.25 85.6 60.05 85.32 60.74 82.75 58.94"/></g><g id="_Radial_Repeat_83" data-name="&lt;Radial Repeat&gt;"><polygon class="cls-2" points="81.95 60.95 82.26 60.27 84.73 62.2 84.42 62.88 81.95 60.95"/></g><g id="_Radial_Repeat_84" data-name="&lt;Radial Repeat&gt;"><polygon class="cls-2" points="81.04 62.91 81.39 62.25 83.75 64.31 83.4 64.97 81.04 62.91"/></g><g id="_Radial_Repeat_85" data-name="&lt;Radial Repeat&gt;"><polygon class="cls-2" points="80.03 64.81 80.41 64.17 82.66 66.36 82.28 67 80.03 64.81"/></g><g id="_Radial_Repeat_86" data-name="&lt;Radial Repeat&gt;"><polygon class="cls-2" points="78.92 66.66 79.33 66.05 81.46 68.35 81.04 68.97 78.92 66.66"/></g><g id="_Radial_Repeat_87" data-name="&lt;Radial Repeat&gt;"><polygon class="cls-2" points="77.7 68.45 78.15 67.86 80.15 70.27 79.7 70.86 77.7 68.45"/></g><g id="_Radial_Repeat_88" data-name="&lt;Radial Repeat&gt;"><polygon class="cls-2" points="76.4 70.17 76.88 69.6 78.75 72.12 78.27 72.69 76.4 70.17"/></g><g id="_Radial_Repeat_89" data-name="&lt;Radial Repeat&gt;"><polygon class="cls-2" points="75 71.82 75.51 71.28 77.24 73.89 76.73 74.43 75 71.82"/></g><g id="_Radial_Repeat_90" data-name="&lt;Radial Repeat&gt;"><polygon class="cls-2" points="73.52 73.39 74.06 72.87 75.64 75.58 75.11 76.09 73.52 73.39"/></g><g id="_Radial_Repeat_91" data-name="&lt;Radial Repeat&gt;"><polygon class="cls-2" points="71.95 74.87 72.52 74.39 73.96 77.18 73.39 77.66 71.95 74.87"/></g><g id="_Radial_Repeat_92" data-name="&lt;Radial Repeat&gt;"><polygon class="cls-2" points="70.31 76.28 70.9 75.82 72.19 78.68 71.6 79.14 70.31 76.28"/></g><g id="_Radial_Repeat_93" data-name="&lt;Radial Repeat&gt;"><polygon class="cls-2" points="68.59 77.59 69.21 77.17 70.34 80.09 69.73 80.51 68.59 77.59"/></g><g id="_Radial_Repeat_94" data-name="&lt;Radial Repeat&gt;"><polygon class="cls-2" points="66.81 78.8 67.45 78.42 68.42 81.4 67.78 81.79 66.81 78.8"/></g><g id="_Radial_Repeat_95" data-name="&lt;Radial Repeat&gt;"><polygon class="cls-2" points="64.96 79.92 65.62 79.57 66.43 82.6 65.78 82.95 64.96 79.92"/></g><g id="_Radial_Repeat_96" data-name="&lt;Radial Repeat&gt;"><polygon class="cls-2" points="63.06 80.94 63.73 80.63 64.38 83.69 63.71 84.01 63.06 80.94"/></g><g id="_Radial_Repeat_97" data-name="&lt;Radial Repeat&gt;"><polygon class="cls-2" points="61.1 81.86 61.79 81.58 62.28 84.68 61.59 84.96 61.1 81.86"/></g><g id="_Radial_Repeat_98" data-name="&lt;Radial Repeat&gt;"><polygon class="cls-2" points="59.1 82.67 59.81 82.42 60.12 85.54 59.42 85.79 59.1 82.67"/></g><g id="_Radial_Repeat_99" data-name="&lt;Radial Repeat&gt;"><polygon class="cls-2" points="57.06 83.37 57.77 83.16 57.92 86.29 57.21 86.5 57.06 83.37"/></g><g id="_Radial_Repeat_100" data-name="&lt;Radial Repeat&gt;"><polygon class="cls-2" points="54.98 83.95 55.71 83.79 55.69 86.92 54.96 87.09 54.98 83.95"/></g><path class="cls-1" d="M102.51,26.5V14.27H99.46V12.74h9.17v1.53h-3V26.5Z"/><path class="cls-1" d="M111.22,26.5V12.74h3.06V26.5Z"/><path class="cls-1" d="M117.68,26.5V12.74h.69l6.54,6.52,6.53-6.52H133V26.5h-3.07V18.08l-5.37,5.37-5.33-5.37V26.5Z"/><path class="cls-1" d="M135.69,26.5V12.74h7.64v1.53h-4.59v4.59h3.07v1.52h-3.07V25h4.59V26.5Z"/><path class="cls-1" d="M146.07,26.5V12.74h3.05V25h4.59V26.5Z"/><path class="cls-1" d="M156.24,26.5V12.74h7.64v1.53h-4.59v4.59h3.07v1.52h-3.07V25h4.59V26.5Z"/><path class="cls-1" d="M166.61,26.5V15.79a3,3,0,0,1,.9-2.16,3,3,0,0,1,2.16-.89h3.07a3.07,3.07,0,0,1,3,3V26.5h-3V20.38h-3.07V26.5Zm3.06-7.64h3.07V15.79a1.54,1.54,0,0,0-3.07,0Z"/><path class="cls-1" d="M178.35,26.5V12.74h6.13a3.07,3.07,0,0,1,3.05,3v1.53a3.07,3.07,0,0,1-3.05,3.06h-3.07V26.5Zm3.06-7.64h1.53A1.44,1.44,0,0,0,184,18.4a1.48,1.48,0,0,0,.46-1.08V15.79a1.55,1.55,0,0,0-1.54-1.52h-1.53Z"/><path class="cls-1" d="M99.78,67.45V34.29h7.38V67.45Z"/><path class="cls-1" d="M112.42,67.45V34.29h1.68L134.53,52.7V34.29h3.69V67.45h-1.69L116.12,49V67.45Z"/><path class="cls-1" d="M142.85,67.45V34.29H157.6A7.43,7.43,0,0,1,165,41.65V60.09a7.44,7.44,0,0,1-7.36,7.36Zm7.36-3.7h3.7a3.69,3.69,0,0,0,3.69-3.66V41.65a3.5,3.5,0,0,0-1.09-2.59,3.62,3.62,0,0,0-2.6-1.08h-3.7Z"/><path class="cls-1" d="M183.55,34.33l7.36,0,.13,25.8a7.43,7.43,0,0,1-7.31,7.4l-7.4,0a7.39,7.39,0,0,1-7.39-7.32l-.14-25.8,7.36,0,.13,25.8a3.7,3.7,0,0,0,7.4,0Z"/><path class="cls-1" d="M212.79,41.53l-3.66,0c-.33-2.47-1.5-3.69-3.51-3.68a4.07,4.07,0,0,0-2.91,1,3.63,3.63,0,0,0-1,2.78,3.8,3.8,0,0,0,1.1,2.59l7.85,8.73a7.66,7.66,0,0,1,2.19,5.19V60a7.14,7.14,0,0,1-2.13,5.19,7.05,7.05,0,0,1-5.19,2.21l-3.69,0c-2.45,0-4.29-.59-5.52-1.82a7.47,7.47,0,0,1-1.88-5.5l3.7,0a5.25,5.25,0,0,0,0,.61,2.59,2.59,0,0,0,1.17,2.27,4.46,4.46,0,0,0,2.55.76,3.65,3.65,0,0,0,2.82-1,3.93,3.93,0,0,0,.85-2.77,3.78,3.78,0,0,0-1.1-2.59l-7.85-8.69a7.64,7.64,0,0,1-2.19-5.19V41.62a7.39,7.39,0,0,1,7.32-7.39l3.7,0Q212.3,34.17,212.79,41.53Z"/><path class="cls-1" d="M222.06,67.45V38H214.7V34.29h22.11V38h-7.36V67.45Z"/><path class="cls-1" d="M238.74,67.45V34.29h14.75a7.43,7.43,0,0,1,7.36,7.36v2a8,8,0,0,1-1.69,4.76c-1.13,1.52-3,2.29-5.67,2.29h3.66a3.7,3.7,0,0,1,3.7,3.69V67.45h-7.36V56.4a3.53,3.53,0,0,0-1.09-2.61,3.57,3.57,0,0,0-2.6-1.09h-3.7V67.45ZM246.1,49h3.7a3.74,3.74,0,0,0,3.69-3.7V41.65a3.5,3.5,0,0,0-1.09-2.59A3.64,3.64,0,0,0,249.8,38h-3.7Z"/><path class="cls-1" d="M266.05,67.45V34.29h7.37V67.45Z"/><path class="cls-1" d="M279.13,67.45V34.29h18.41V38H286.48V49h7.4V52.7h-7.4v11h11.06v3.7Z"/><path class="cls-1" d="M318.87,41.65h-3.66q-.49-3.7-3.49-3.7a4.1,4.1,0,0,0-2.92.93,3.64,3.64,0,0,0-1,2.78,3.83,3.83,0,0,0,1.09,2.59L316.71,53a7.67,7.67,0,0,1,2.16,5.2v1.86a7.43,7.43,0,0,1-7.36,7.36h-3.7a7.5,7.5,0,0,1-5.51-1.85,7.48,7.48,0,0,1-1.84-5.51h3.69c0,.26,0,.46,0,.61A2.56,2.56,0,0,0,305.28,63a4.49,4.49,0,0,0,2.53.77,3.66,3.66,0,0,0,2.84-1,4,4,0,0,0,.86-2.76,3.75,3.75,0,0,0-1.09-2.59l-7.8-8.74a7.63,7.63,0,0,1-2.16-5.2V41.65a7.09,7.09,0,0,1,2.16-5.18,7,7,0,0,1,5.19-2.18h3.7Q318.43,34.29,318.87,41.65Z"/><rect class="cls-3" x="187.01" y="24.64" width="131.96" height="1.5"/><rect class="cls-3" x="99.78" y="75.09" width="219.19" height="1.5"/><path class="cls-4" d="M72,27.11c-1-.88-1.94-1.84-2.94-2.73-.78-.69-1.37-1.79-2.74-1.31a7.73,7.73,0,0,1,0-1.29,2.09,2.09,0,0,0-.87-2.15c-.88-.75-1.67-1.6-2.51-2.41-.59-.56-1.05-1.4-2.14-.91v-.65A2.67,2.67,0,0,0,59,13.07c-1.57-.52-3.14-1.08-4.73-1.56a10.19,10.19,0,0,0-1.89-.18c-.19-.18-.46-.59-.82-.72q-3.1-1.08-6.27-2a1.51,1.51,0,0,0-1.09.18,4.81,4.81,0,0,0-2.09,2.46,2.1,2.1,0,0,1-1.56,1.29,30.2,30.2,0,0,0-3.22,1,2.93,2.93,0,0,0-1.24.89c-2.82,3.89-5.53,7.88-8.44,11.71a7.69,7.69,0,0,0-1.81,5.61,9.62,9.62,0,0,0,.77,3.42c2,4.23,3.85,8.55,6,12.73a5,5,0,0,1,0,4.71q-6.12,14.54-12.2,29.1a44,44,0,0,0,4.6,2.7L37.78,51.7a1.87,1.87,0,0,0,0-1.6c-2.65-5.84-5.33-11.66-7.88-17.54A4.58,4.58,0,0,1,30.19,28c2.29-3.43,4.6-6.86,6.78-10.36a5.58,5.58,0,0,1,3.69-2.86,4.17,4.17,0,0,1,2.16-.08c2.88.82,5.77,1.6,8.66,2.39a1.35,1.35,0,0,1,.75,2.32,11.26,11.26,0,0,1-1.09,1.29,2.56,2.56,0,0,1-1.24.69c-1.7.24-3.42.44-5.13.53a7,7,0,0,1-2.31-.36c-.88-.27-1.71-.7-2.79-1.16,1,3.85-.24,6.21-4.19,6.91,5.29,8.38,10.48,16.6,15.75,25-2.13,0-4.08,0-6,0-.63,0-.93.13-1.1.8-2.24,8.5-6.24,29.09-6.24,29.09s5.2-16.82,8.27-24.79a1.35,1.35,0,0,1,1-.94c2.13-.53,4.25-1.09,6.38-1.65.35-.09.71-.2,1.11-.32-2.69-6.82-5.34-13.52-8-20.22l.17-.09,12,10.67.15-.13c-1-2.17-2-4.34-3-6.55H66.37c-.74,3.9-1.45,7.69-2.2,11.47a1.4,1.4,0,0,1-.6.71c-1.71,1.29-3.39,2.61-5.16,3.81a2.6,2.6,0,0,0-1.17,2.11c-.4,3.55-5.16,24.38-7.07,33,3.42-.44,1.38-.19,1.38-.19S61.81,58,63.21,56A20.62,20.62,0,0,0,67,48.67c1.61-6.84,3.53-13.61,5.33-20.41A1,1,0,0,0,72,27.11ZM50.59,13.38a13.15,13.15,0,0,1-.7,1.49L44.2,13l.21-.47c1-1.88,1.07-1.91,3-1.26.84.28,1.68.58,2.53.82S50.81,12.78,50.59,13.38Zm-.18,15.24c-.64.13-1.47-.6-2.21-1l-1.11-.58c.64-1.17,1.21-2.28,1.85-3.35a1.11,1.11,0,0,1,.75-.5,5.21,5.21,0,0,0,4.63-3c.24-.46.8-.91.77-1.34a9,9,0,0,0-.7-2.37c-.07-.16-.37-.27-.58-.34-.52-.19-1.06-.35-1.69-.56a15,15,0,0,1,.66-1.49,1.11,1.11,0,0,1,1.41-.61c1.29.43,2.59.84,3.87,1.3a.82.82,0,0,1,.44.6A7.58,7.58,0,0,1,58,17.52c-1,2.2-2.09,4.4-3.31,6.5a18.71,18.71,0,0,1-2.45,2.91C51.69,27.56,51.12,28.48,50.41,28.62ZM57,32.23c-.9-.56-1.86-1-2.88-1.59.81-1.58,1.6-3.13,2.4-4.67.65-1.27,1.4-2.49,2-3.8a5,5,0,0,1,3.25-3c.79.85,1.64,1.77,2.51,2.66a1.05,1.05,0,0,1,.17,1.44c-2,3-3.54,6.25-6.22,8.75C57.75,32.4,57.49,32.55,57,32.23Zm11.67-1.4a3.43,3.43,0,0,0-.64,1,7.18,7.18,0,0,1-4.29,3.61,1.06,1.06,0,0,1-.74.05c-.87-.38-1.71-.82-2.63-1.28.3-.47.56-.9.83-1.31L65.75,26c.53-.8.91-.86,1.59-.17s1.81,1.5,1.84,2.89A2.81,2.81,0,0,1,68.64,30.83Z"/><path class="cls-3" d="M24,81.59,22.89,81q5.76-13.78,11.55-27.56A7.25,7.25,0,0,0,35,49l.89,2C32.38,60,24,81.59,24,81.59Zm33.6-16.48c.87-4.12,1.53-7.38,1.67-8.65.06-.53.12-.57.3-.69,1-.66,1.93-1.35,2.86-2.05l-.8,1.13C61,55.66,59.43,59.82,57.56,65.11ZM45.32,53.54l5.09,0-2.53.64a11,11,0,0,0-3,1.2C45,54.77,45.17,54.15,45.32,53.54ZM38.54,28.41A5.94,5.94,0,0,0,42,23.48a8.79,8.79,0,0,0,2.6.44h.32l1.73-.12c-.26.46-.51.92-.76,1.4l-1.48,2.7L46.53,29l.79.41a4.52,4.52,0,0,1,.51.3,4.67,4.67,0,0,0,2.43.89,2.57,2.57,0,0,0,.55-.06,3.37,3.37,0,0,0,1.4-.66l-.8,1.55,1.72.93.92.49c.66.35,1.29.68,1.87,1a2.87,2.87,0,0,0,1.55.48l.39,0-.39.61,2.32,1.14H53l.58,1.28-6.42-5.68-3,1.57L48.36,44Zm27.37,7.78a12.3,12.3,0,0,0,2.71-2.28c-.2.76-.41,1.52-.61,2.28Z"/></svg>