<svg id="Layer_1" data-name="Layer 1" xmlns="http://www.w3.org/2000/svg" viewBox="0 0 500 500"><defs><style>.cls-1{fill:none;stroke:#c3c3c3;stroke-linecap:round;stroke-linejoin:round;stroke-width:10.52px;}.cls-2{fill:#9d0000;}</style></defs><path class="cls-1" d="M230.75,376.41l-8.11-28.68a92.25,92.25,0,0,0-49.95-58.56l-20.13-9.34a45,45,0,0,1-24.37-28.56l-9.74-34.36.77-5.78a29.63,29.63,0,0,0-13.76-29.07l-.5-.31"/><path class="cls-1" d="M131.65,319.25q-2.15.3-4.23.48c-23.17,2-45.73-8.53-60-26.86-29.45-37.71-51.87-14.16-51.87-14.16s24.3,29.14,40.85,57.9c11.8,20.51,31,36.11,53.92,41.84,1.41.35,2.87.68,4.35,1a50.81,50.81,0,0,1,34.59,26.15"/><path class="cls-1" d="M37.49,271.74l-10-45.84,29.45-90.39s16.89,4.23,12.53,30l-13.36,58.8L65.2,261.5"/><path class="cls-1" d="M67.55,145l7.91-24.4s21.86,8,14.49,37.16L77.7,221.64l9.77,34.53"/><path class="cls-1" d="M91.43,145l1.11.81a33.18,33.18,0,0,1,13,32.88l-7.08,37.81,10.11,35.17"/><polyline class="cls-1" points="220.72 436.53 151.86 457.72 133.33 411.46 230.75 376.4 230.75 399.85"/><line class="cls-1" x1="141.34" y1="431.46" x2="230.75" y2="399.85"/><path class="cls-1" d="M269.25,376.41l8.11-28.68a92.25,92.25,0,0,1,49.95-58.56l20.13-9.34a45,45,0,0,0,24.37-28.56l9.74-34.36-.77-5.78a29.63,29.63,0,0,1,13.76-29.07l.5-.31"/><path class="cls-1" d="M368.35,319.25q2.14.3,4.23.48c23.17,2,45.73-8.53,60-26.86,29.45-37.71,51.87-14.16,51.87-14.16s-24.3,29.14-40.85,57.9c-11.8,20.51-31,36.11-53.92,41.84-1.41.35-2.87.68-4.35,1a50.81,50.81,0,0,0-34.59,26.15"/><path class="cls-1" d="M462.51,271.74l10-45.84-29.45-90.39s-16.89,4.23-12.53,30l13.36,58.8L434.8,261.5"/><path class="cls-1" d="M432.45,145l-7.91-24.4s-21.86,8-14.48,37.16l12.24,63.85-9.77,34.53"/><path class="cls-1" d="M408.57,145l-1.11.81a33.18,33.18,0,0,0-13,32.88l7.08,37.81-10.11,35.17"/><polyline class="cls-1" points="279.28 436.53 348.14 457.72 366.67 411.46 269.25 376.4 269.25 399.85"/><line class="cls-1" x1="358.66" y1="431.46" x2="269.25" y2="399.85"/><path class="cls-2" d="M251.89,42.28A102.68,102.68,0,1,0,354.57,145,102.68,102.68,0,0,0,251.89,42.28Zm0,180.49A77.82,77.82,0,1,1,329.71,145,77.81,77.81,0,0,1,251.89,222.77Z"/><path class="cls-1" d="M230.84,165.94a21.06,21.06,0,0,0,42.11,0c0-11.63-8.63-17-21.06-21.06-11-3.6-21-9.42-21-21a21.06,21.06,0,0,1,42.11,0"/><line class="cls-1" x1="251.89" y1="91.04" x2="251.89" y2="102.92"/><line class="cls-1" x1="251.89" y1="186.99" x2="251.89" y2="198.87"/></svg>