<svg id="Layer_1" data-name="Layer 1" xmlns="http://www.w3.org/2000/svg" viewBox="0 0 500 500"><defs><style>.cls-1{fill:none;stroke:#c3c3c3;stroke-linecap:round;stroke-linejoin:round;stroke-width:10.52px;}.cls-2{fill:#9d0000;}</style></defs><path class="cls-1" d="M256.58,428.77S414.2,458.93,427.27,279.16"/><polyline class="cls-1" points="404.18 274.39 430.97 253.7 451.68 280.51"/><path class="cls-1" d="M246.62,67.23S89,37.06,75.93,216.84"/><polyline class="cls-1" points="99.02 221.6 72.24 242.3 51.52 215.49"/><polyline class="cls-1" points="255.81 312.08 151.83 254.43 47.84 312.08"/><polyline class="cls-1" points="68.48 300.64 68.48 415.15 235.18 415.15 235.18 300.64"/><path class="cls-1" d="M90.13,415.15v-71a25.44,25.44,0,0,1,25.44-25.44h0A25.44,25.44,0,0,1,141,344.14v71"/><path class="cls-1" d="M213.53,415.15v-71a25.44,25.44,0,0,0-25.44-25.44h0a25.44,25.44,0,0,0-25.44,25.44v71"/><path class="cls-2" d="M63.39,434.87H240.27a15.54,15.54,0,0,1,15.54,15.54v4a0,0,0,0,1,0,0h-208a0,0,0,0,1,0,0v-4a15.54,15.54,0,0,1,15.54-15.54Z"/><line class="cls-1" x1="376.49" y1="177.39" x2="376.49" y2="211.72"/><line class="cls-1" x1="321.55" y1="177.39" x2="321.55" y2="211.72"/><circle class="cls-1" cx="349.39" cy="99.9" r="25.5"/><path class="cls-1" d="M300.84,211.72V157.81a16.58,16.58,0,0,1,16.59-16.58h63.92a16.58,16.58,0,0,1,16.59,16.58v53.91"/><line class="cls-1" x1="349.39" y1="141.23" x2="349.39" y2="170.78"/><circle class="cls-1" cx="349.39" cy="148.32" r="102.77" transform="translate(147.02 469.44) rotate(-80.78)"/></svg>