<svg id="_4" data-name="4" xmlns="http://www.w3.org/2000/svg" viewBox="0 0 2198.25 1189.41"><defs><style>.cls-1{fill:#fff;}.cls-2{fill:#e43800;}</style></defs><path class="cls-1" d="M261.18,798.86h-4.56q-.6-4.59-4.34-4.59a5.08,5.08,0,0,0-3.63,1.16,4.52,4.52,0,0,0-1.22,3.46,4.75,4.75,0,0,0,1.35,3.22L258.49,813a9.57,9.57,0,0,1,2.69,6.47v2.32a8.84,8.84,0,0,1-2.69,6.43A8.74,8.74,0,0,1,252,831h-4.59c-3,0-5.33-.76-6.86-2.3s-2.3-3.81-2.3-6.85h4.6c0,.32,0,.57,0,.75a3.21,3.21,0,0,0,1.44,2.84,5.57,5.57,0,0,0,3.16,1,4.56,4.56,0,0,0,3.52-1.18,5,5,0,0,0,1.07-3.43,4.72,4.72,0,0,0-1.35-3.23L241,807.65a9.5,9.5,0,0,1-2.69-6.47v-2.32a9.22,9.22,0,0,1,9.16-9.15H252Q260.62,789.71,261.18,798.86Z"/><path class="cls-1" d="M274.92,831V794.31h-9.15v-4.6h27.5v4.6h-9.15V831Z"/><path class="cls-1" d="M297.87,831v-32.1a9.22,9.22,0,0,1,9.15-9.15h9.2a9.24,9.24,0,0,1,9.15,9.15V831h-9.15V812.61H307V831Zm9.15-22.9h9.2v-9.2a4.37,4.37,0,0,0-1.37-3.21,4.57,4.57,0,0,0-6.47,0,4.36,4.36,0,0,0-1.36,3.21Z"/><path class="cls-1" d="M334.52,831V789.71h9.15v16.85l14.83-16.85h8.12l-18.35,20.63L366.62,831h-9.2l-13.75-16v16Z"/><path class="cls-1" d="M375.77,831V789.71h22.9v4.6H384.92v13.75h9.2v4.55h-9.2v13.75h13.75V831Z"/><path class="cls-1" d="M453.4,803.46H458v4.6a8.85,8.85,0,0,1-2.62,6.53,8.38,8.38,0,0,1-6.12,2.62h-.41v4.6a9.35,9.35,0,0,1-2.65,6.09,8.26,8.26,0,0,1-6.5,3.06h-9.2a8.27,8.27,0,0,1-6.51-3.06,9.38,9.38,0,0,1-2.64-6.09v-4.6a10.17,10.17,0,0,1,2.27-6.12q2.28-3,6.88-3-9.15-1.08-9.15-9.2a9.22,9.22,0,0,1,9.15-9.15h9.2a9.24,9.24,0,0,1,9.15,9.15v4.6h-9.15v-4.6a4.33,4.33,0,0,0-1.37-3.23,4.64,4.64,0,0,0-6.48,0,4.35,4.35,0,0,0-1.35,3.23v2.32q0,4,4.6,4.56v4.6c-3.07.38-4.6,1.92-4.6,4.59v6.88a4.23,4.23,0,0,0,1.35,3.42,5.21,5.21,0,0,0,6.48,0,4.2,4.2,0,0,0,1.37-3.42v-9.2h9.15a4.43,4.43,0,0,0,3.25-1.33,4.36,4.36,0,0,0,1.35-3.22Z"/><path class="cls-1" d="M480.57,831V789.71h22.9v4.6H489.72v13.75h9.2v4.55h-9.2v13.75h13.75V831Z"/><path class="cls-1" d="M512.67,831v-32.1a9.22,9.22,0,0,1,9.15-9.15H531a9.24,9.24,0,0,1,9.15,9.15V831H531V812.61h-9.2V831Zm9.15-22.9H531v-9.2a4.37,4.37,0,0,0-1.37-3.21,4.57,4.57,0,0,0-6.47,0,4.36,4.36,0,0,0-1.36,3.21Z"/><path class="cls-1" d="M549.32,831V789.71h18.35a9.22,9.22,0,0,1,9.15,9.15v2.5a9.85,9.85,0,0,1-2.1,5.92q-2.12,2.84-7.05,2.84h4.55a4.63,4.63,0,0,1,4.6,4.6V831h-9.15V817.21a4.66,4.66,0,0,0-4.6-4.6h-4.6V831Zm9.15-22.9h4.6a4.38,4.38,0,0,0,3.23-1.36,4.43,4.43,0,0,0,1.37-3.24v-4.6a4.37,4.37,0,0,0-1.37-3.21,4.44,4.44,0,0,0-3.23-1.34h-4.6Z"/><path class="cls-1" d="M586,831V789.71h2.09l25.41,22.9v-22.9h4.6V831H616l-25.4-22.9V831Z"/><path class="cls-1" d="M203.76,897V855.71h18.35a9.24,9.24,0,0,1,9.15,9.15v2.5a9.8,9.8,0,0,1-2.11,5.92q-2.1,2.84-7,2.84h4.55a4.63,4.63,0,0,1,4.6,4.6V897h-9.15V883.21a4.4,4.4,0,0,0-1.37-3.24,4.45,4.45,0,0,0-3.23-1.36h-4.6V897Zm9.15-22.9h4.6a4.66,4.66,0,0,0,4.6-4.6v-4.6a4.37,4.37,0,0,0-1.37-3.21,4.48,4.48,0,0,0-3.23-1.34h-4.6Z"/><path class="cls-1" d="M240.41,897v-32.1a9.22,9.22,0,0,1,9.15-9.15h9.2a9.24,9.24,0,0,1,9.15,9.15V897h-9.15V878.61h-9.2V897Zm9.15-22.9h9.2v-9.2a4.37,4.37,0,0,0-1.37-3.21,4.57,4.57,0,0,0-6.47,0,4.36,4.36,0,0,0-1.36,3.21Z"/><path class="cls-1" d="M277.06,855.71h9.15v36.65h4.6a4.59,4.59,0,0,0,4.6-4.55v-32.1h9.15v36.65h4.6a4.59,4.59,0,0,0,4.55-4.55v-32.1h9.2V881.3A15.78,15.78,0,0,1,307.25,897H295.41V895.5A13.22,13.22,0,0,1,288.9,897H277.06Z"/><path class="cls-1" d="M345.49,897V855.71h2.08l19.6,19.55,19.57-19.55h4.6V897h-9.2V871.74l-16.09,16.09-16-16.09V897Z"/><path class="cls-1" d="M400.49,897v-32.1a9.22,9.22,0,0,1,9.15-9.15h9.2a9.24,9.24,0,0,1,9.15,9.15V897h-9.15V878.61h-9.2V897Zm9.15-22.9h9.2v-9.2a4.37,4.37,0,0,0-1.37-3.21,4.57,4.57,0,0,0-6.47,0,4.36,4.36,0,0,0-1.36,3.21Z"/><path class="cls-1" d="M441.7,897V860.31h-9.16v-4.6H460v4.6h-9.15V897Z"/><path class="cls-1" d="M464.64,897V855.71h22.9v4.6H473.79v13.75H483v4.55h-9.2v13.75h13.75V897Z"/><path class="cls-1" d="M496.74,897V855.71h18.35a9.24,9.24,0,0,1,9.15,9.15v2.5a9.8,9.8,0,0,1-2.11,5.92q-2.1,2.84-7,2.84h4.55a4.63,4.63,0,0,1,4.6,4.6V897h-9.15V883.21a4.66,4.66,0,0,0-4.6-4.6h-4.6V897Zm9.15-22.9h4.6a4.66,4.66,0,0,0,4.6-4.6v-4.6a4.37,4.37,0,0,0-1.37-3.21,4.46,4.46,0,0,0-3.23-1.34h-4.6Z"/><path class="cls-1" d="M538,897V855.71h9.17V897Z"/><path class="cls-1" d="M560.89,897v-32.1a9.22,9.22,0,0,1,9.15-9.15h9.2a9.24,9.24,0,0,1,9.15,9.15V897h-9.15V878.61H570V897Zm9.15-22.9h9.2v-9.2a4.37,4.37,0,0,0-1.37-3.21,4.57,4.57,0,0,0-6.47,0,4.36,4.36,0,0,0-1.36,3.21Z"/><path class="cls-1" d="M597.54,897V855.71h9.16v36.65h13.75V897Z"/><path class="cls-1" d="M652.54,864.86H648q-.6-4.59-4.34-4.59a5,5,0,0,0-3.63,1.16,4.52,4.52,0,0,0-1.23,3.46,4.72,4.72,0,0,0,1.36,3.22L649.86,879a9.56,9.56,0,0,1,2.68,6.47v2.32a9.22,9.22,0,0,1-9.15,9.15h-4.6c-3,0-5.32-.76-6.85-2.3s-2.3-3.81-2.3-6.85h4.6c0,.32,0,.57,0,.75a3.21,3.21,0,0,0,1.44,2.84,5.59,5.59,0,0,0,3.16,1,4.57,4.57,0,0,0,3.53-1.18,5,5,0,0,0,1.07-3.43,4.72,4.72,0,0,0-1.35-3.23l-9.71-10.87a9.5,9.5,0,0,1-2.69-6.47v-2.32a9.22,9.22,0,0,1,9.15-9.15h4.6Q652,855.71,652.54,864.86Z"/><rect class="cls-1" x="641.69" y="710.86" width="487.87" height="2" transform="translate(-233.11 513.1) rotate(-28.72)"/><circle class="cls-2" cx="681.9" cy="823.63" r="14.33"/></svg>