<svg id="_5" data-name="5" xmlns="http://www.w3.org/2000/svg" viewBox="0 0 1234.25 1157.77"><defs><style>.cls-1{fill:#fff;}.cls-2{fill:none;stroke:#fff;stroke-miterlimit:10;stroke-width:2px;}.cls-3{fill:#e43800;}</style></defs><path class="cls-1" d="M154.26,267.8V226.55h18.35a9.22,9.22,0,0,1,9.15,9.15V238a8.58,8.58,0,0,1-2.28,6.32q-2.29,2.29-6.87,2.84,4.57,0,6.87,2.76a9.74,9.74,0,0,1,2.28,6.39v2.32a9.27,9.27,0,0,1-9.15,9.15Zm9.16-22.9H168a4.43,4.43,0,0,0,3.24-1.37,4.38,4.38,0,0,0,1.36-3.23v-4.6a4.36,4.36,0,0,0-1.36-3.21,4.48,4.48,0,0,0-3.24-1.34h-4.59Zm0,18.3H168a4.45,4.45,0,0,0,3.24-1.35,4.35,4.35,0,0,0,1.36-3.2v-4.6c0-3.06-1.53-4.6-4.6-4.6h-4.59Z"/><path class="cls-1" d="M190.92,267.8V235.7a9.2,9.2,0,0,1,9.15-9.15h9.19a9.24,9.24,0,0,1,9.16,9.15v32.1h-9.16V249.45h-9.19V267.8Zm9.15-22.9h9.19v-9.2a4.36,4.36,0,0,0-1.36-3.21,4.59,4.59,0,0,0-6.48,0,4.38,4.38,0,0,0-1.35,3.21Z"/><path class="cls-1" d="M232.12,267.8V231.15H223v-4.6h27.5v4.6h-9.15V267.8Z"/><path class="cls-1" d="M259.62,267.8V231.15h-9.15v-4.6H278v4.6h-9.15V267.8Z"/><path class="cls-1" d="M282.57,267.8V226.55h9.15V263.2h13.75v4.6Z"/><path class="cls-1" d="M314.67,267.8V226.55h22.9v4.6H323.82V244.9H333v4.55h-9.19V263.2h13.75v4.6Z"/><path class="cls-1" d="M49,333.8V301.7a9.22,9.22,0,0,1,9.16-9.15h9.19a9.22,9.22,0,0,1,9.15,9.15v32.1H67.37V315.45H58.18V333.8Zm9.16-22.9h9.19v-9.2A4.36,4.36,0,0,0,66,298.49a4.59,4.59,0,0,0-6.48,0,4.38,4.38,0,0,0-1.35,3.21Z"/><path class="cls-1" d="M85.68,333.8V292.55H104a9.24,9.24,0,0,1,9.16,9.15v2.5a9.83,9.83,0,0,1-2.11,5.91Q109,313,104,313h4.56a4.63,4.63,0,0,1,4.6,4.6V333.8H104V320.05a4.64,4.64,0,0,0-4.59-4.6h-4.6V333.8Zm9.15-22.9h4.6a4.66,4.66,0,0,0,4.59-4.6v-4.6a4.36,4.36,0,0,0-1.36-3.21,4.48,4.48,0,0,0-3.23-1.34h-4.6Z"/><path class="cls-1" d="M122.33,333.8V292.55h22.9v4.6H131.48V310.9h9.2v4.55h-9.2V329.2h13.75v4.6Z"/><path class="cls-1" d="M154.43,333.8V292.55h2.08l25.42,22.9v-22.9h4.59V333.8h-2.1L159,310.9v22.9Z"/><path class="cls-1" d="M195.68,333.8V301.7a9.2,9.2,0,0,1,9.15-9.15H214a9.24,9.24,0,0,1,9.16,9.15v32.1H214V315.45h-9.19V333.8Zm9.15-22.9H214v-9.2a4.36,4.36,0,0,0-1.36-3.21,4.59,4.59,0,0,0-6.48,0,4.38,4.38,0,0,0-1.35,3.21Z"/><path class="cls-1" d="M245.75,333.8V301.7a9.22,9.22,0,0,1,9.16-9.15h9.19a9.22,9.22,0,0,1,9.15,9.15v32.1H264.1V315.45h-9.19V333.8Zm9.16-22.9h9.19v-9.2a4.36,4.36,0,0,0-1.36-3.21,4.59,4.59,0,0,0-6.48,0,4.38,4.38,0,0,0-1.35,3.21Z"/><path class="cls-1" d="M309.91,324.65q-.6,9.15-9.16,9.15h-9.19a9.2,9.2,0,0,1-9.15-9.15V301.7a8.9,8.9,0,0,1,2.65-6.42,8.72,8.72,0,0,1,6.5-2.73h9.19q8.64,0,9.16,9.15h-4.6q-.54-4.54-4.56-4.55h-4.59a4.47,4.47,0,0,0-3.25,1.34,4.38,4.38,0,0,0-1.35,3.21v22.95a4.59,4.59,0,0,0,4.6,4.55h4.59c2.7,0,4.22-1.51,4.56-4.55Z"/><path class="cls-1" d="M346.56,324.65q-.6,9.15-9.15,9.15h-9.2a9.2,9.2,0,0,1-9.15-9.15V301.7a8.9,8.9,0,0,1,2.65-6.42,8.72,8.72,0,0,1,6.5-2.73h9.2q8.63,0,9.15,9.15H342q-.54-4.54-4.55-4.55h-4.6a4.49,4.49,0,0,0-3.25,1.34,4.38,4.38,0,0,0-1.35,3.21v22.95a4.59,4.59,0,0,0,4.6,4.55h4.6c2.69,0,4.21-1.51,4.55-4.55Z"/><path class="cls-1" d="M355.71,333.8V292.55h22.9v4.6H364.86V310.9h9.2v4.55h-9.2V329.2h13.75v4.6Z"/><path class="cls-1" d="M410.71,301.7h-4.55c-.41-3.06-1.85-4.59-4.34-4.59a5.09,5.09,0,0,0-3.64,1.16,4.55,4.55,0,0,0-1.22,3.45,4.76,4.76,0,0,0,1.35,3.23L408,315.86a9.57,9.57,0,0,1,2.69,6.47v2.32a8.84,8.84,0,0,1-2.69,6.43,8.72,8.72,0,0,1-6.46,2.72H397q-4.56,0-6.85-2.3c-1.54-1.53-2.3-3.81-2.3-6.85h4.6c0,.31-.05.56-.05.75a3.21,3.21,0,0,0,1.44,2.84,5.57,5.57,0,0,0,3.16,1,4.54,4.54,0,0,0,3.52-1.18,4.93,4.93,0,0,0,1.08-3.44,4.67,4.67,0,0,0-1.36-3.22l-9.71-10.87a9.5,9.5,0,0,1-2.68-6.47V301.7a9.2,9.2,0,0,1,9.15-9.15h4.6Q410.16,292.55,410.71,301.7Z"/><path class="cls-1" d="M442.81,301.7h-4.56c-.4-3.06-1.84-4.59-4.34-4.59a5.08,5.08,0,0,0-3.63,1.16,4.55,4.55,0,0,0-1.22,3.45,4.76,4.76,0,0,0,1.35,3.23l9.71,10.91a9.57,9.57,0,0,1,2.69,6.47v2.32a8.84,8.84,0,0,1-2.69,6.43,8.72,8.72,0,0,1-6.46,2.72h-4.6c-3,0-5.32-.77-6.86-2.3s-2.29-3.81-2.29-6.85h4.59c0,.31,0,.56,0,.75a3.21,3.21,0,0,0,1.44,2.84,5.57,5.57,0,0,0,3.16,1,4.56,4.56,0,0,0,3.52-1.18,4.93,4.93,0,0,0,1.08-3.44,4.71,4.71,0,0,0-1.36-3.22l-9.71-10.87a9.5,9.5,0,0,1-2.68-6.47V301.7a9.2,9.2,0,0,1,9.15-9.15h4.6Q442.24,292.55,442.81,301.7Z"/><line class="cls-2" x1="617.64" y1="684.84" x2="236.91" y2="379.78"/><circle class="cls-3" cx="245.92" cy="387.61" r="14.33"/></svg>