<svg id="_3" data-name="3" xmlns="http://www.w3.org/2000/svg" viewBox="0 0 1234.25 1157.77"><defs><style>.cls-1{fill:#fff;}.cls-2{fill:none;stroke:#fff;stroke-miterlimit:10;stroke-width:2px;}.cls-3{fill:#e43800;}</style></defs><path class="cls-1" d="M870.15,1076.46v-41.25h9.18v41.25Z"/><path class="cls-1" d="M893.1,1076.46v-41.25h2.08l25.42,22.9v-22.9h4.6v41.25h-2.11l-25.39-22.9v22.9Z"/><path class="cls-1" d="M934.35,1062.71v-4.6h22.9v4.6Z"/><path class="cls-1" d="M980.2,1053.56H994v13.75c0,3-1,5.32-2.94,6.85a9.91,9.91,0,0,1-6.22,2.3H975.6a9.2,9.2,0,0,1-9.15-9.15v-23a8.9,8.9,0,0,1,2.65-6.42,8.71,8.71,0,0,1,6.5-2.73h9.19q8.64,0,9.16,9.15h-4.6q-.54-4.54-4.56-4.55H980.2a4.43,4.43,0,0,0-3.25,1.34,4.37,4.37,0,0,0-1.35,3.21v23a4.36,4.36,0,0,0,1.35,3.22,4.46,4.46,0,0,0,3.25,1.33q4.38-.21,4.59-4.55v-9.2H980.2Z"/><path class="cls-1" d="M1003.1,1076.46v-32.1a9.2,9.2,0,0,1,9.15-9.15h9.2a9.24,9.24,0,0,1,9.15,9.15v32.1h-9.15v-18.35h-9.2v18.35Zm9.15-22.9h9.2v-9.2a4.35,4.35,0,0,0-1.37-3.21,4.59,4.59,0,0,0-6.48,0,4.37,4.37,0,0,0-1.35,3.21Z"/><path class="cls-1" d="M1039.75,1076.46v-41.25h2.08l19.6,19.55,19.57-19.55h4.6v41.25h-9.2v-25.22l-16.09,16.09-16-16.09v25.22Z"/><path class="cls-1" d="M1094.75,1076.46v-41.25h22.9v4.6H1103.9v13.75h9.2v4.55h-9.2v13.75h13.75v4.6Z"/><path class="cls-1" d="M900.16,1101.21h9.15v32.1a9.25,9.25,0,0,1-9.15,9.15H891a9.2,9.2,0,0,1-9.15-9.15v-32.1H891v32.1a4.6,4.6,0,0,0,9.2,0Z"/><path class="cls-1" d="M923,1142.46v-36.65h-9.16v-4.6h27.5v4.6h-9.15v36.65Z"/><path class="cls-1" d="M950.52,1142.46v-41.25h9.17v41.25Z"/><path class="cls-1" d="M973.46,1142.46v-41.25h9.15v36.65h13.75v4.6Z"/><path class="cls-1" d="M1010.11,1142.46v-41.25h9.18v41.25Z"/><path class="cls-1" d="M1037.61,1142.46v-36.65h-9.15v-4.6H1056v4.6h-9.15v36.65Z"/><path class="cls-1" d="M1069.71,1142.46v-18.35q-9.15-1-9.15-9.15v-13.75h9.15V1115a4.6,4.6,0,0,0,9.2,0v-13.75h9.15V1115q0,8.1-9.15,9.15v18.35Z"/><line class="cls-2" x1="617.19" y1="684.76" x2="997.92" y2="989.82"/><circle class="cls-3" cx="987.79" cy="982.56" r="14.33"/></svg>