<svg id="_1" data-name="1" xmlns="http://www.w3.org/2000/svg" viewBox="0 0 2198.25 1189.41"><defs><style>.cls-1{fill:#fff;}.cls-2{fill:#e43800;}</style></defs><path class="cls-1" d="M935.94,149.88h13.75v13.75q0,4.56-2.94,6.85a9.87,9.87,0,0,1-6.22,2.3h-9.19a9.18,9.18,0,0,1-9.15-9.15V140.69a8.91,8.91,0,0,1,2.65-6.43,8.71,8.71,0,0,1,6.5-2.73h9.19q8.64,0,9.16,9.16h-4.6q-.54-4.56-4.56-4.56h-4.59a4.45,4.45,0,0,0-3.25,1.34,4.39,4.39,0,0,0-1.35,3.22v22.94a4.34,4.34,0,0,0,1.35,3.22,4.45,4.45,0,0,0,3.25,1.34q4.38-.23,4.59-4.56v-9.19h-4.59Z"/><path class="cls-1" d="M968,131.53h9.19a9.24,9.24,0,0,1,9.16,9.16v22.94a9.24,9.24,0,0,1-9.16,9.15H968a9.18,9.18,0,0,1-9.15-9.15V140.69a9.2,9.2,0,0,1,9.15-9.16Zm0,9.16v22.94a4.6,4.6,0,0,0,9.19,0V140.69a4.36,4.36,0,0,0-1.36-3.22,4.59,4.59,0,0,0-6.48,0A4.39,4.39,0,0,0,968,140.69Z"/><path class="cls-1" d="M1013.84,131.53H1023v25.59a15.78,15.78,0,0,1-15.66,15.66H995.49V131.53h9.15v36.66h4.6a4.63,4.63,0,0,0,4.6-4.56Z"/><path class="cls-1" d="M1032.14,172.78V131.53H1055v4.6h-13.75v13.75h9.2v4.56h-9.2v13.75H1055v4.59Z"/><path class="cls-1" d="M1064.24,172.78V131.53h18.35a9.24,9.24,0,0,1,9.15,9.16v2.49a9.8,9.8,0,0,1-2.11,5.92q-2.1,2.84-7,2.84h4.55a4.64,4.64,0,0,1,4.6,4.6v16.24h-9.15V159a4.4,4.4,0,0,0-1.37-3.24,4.45,4.45,0,0,0-3.23-1.35h-4.6v18.34Zm9.15-22.9h4.6a4.66,4.66,0,0,0,4.6-4.6v-4.59a4.37,4.37,0,0,0-1.37-3.22,4.48,4.48,0,0,0-3.23-1.34h-4.6Z"/><path class="cls-1" d="M1100.89,172.78V131.53H1103l25.42,22.91V131.53h4.6v41.25h-2.11l-25.39-22.9v22.9Z"/><path class="cls-1" d="M1142.14,172.78V140.69a9.22,9.22,0,0,1,9.15-9.16h9.2a9.24,9.24,0,0,1,9.15,9.16v32.09h-9.15V154.44h-9.2v18.34Zm9.15-22.9h9.2v-9.19a4.37,4.37,0,0,0-1.37-3.22,4.57,4.57,0,0,0-6.47,0,4.36,4.36,0,0,0-1.36,3.22Z"/><path class="cls-1" d="M1178.79,172.78V131.53h2.09l25.41,22.91V131.53h4.6v41.25h-2.11l-25.39-22.9v22.9Z"/><path class="cls-1" d="M1247.54,163.63q-.6,9.15-9.15,9.15h-9.2a9.2,9.2,0,0,1-9.15-9.15V140.69a9,9,0,0,1,2.65-6.43,8.72,8.72,0,0,1,6.5-2.73h9.2q8.64,0,9.15,9.16h-4.6q-.53-4.56-4.55-4.56h-4.6a4.45,4.45,0,0,0-3.24,1.34,4.4,4.4,0,0,0-1.36,3.22v22.94a4.63,4.63,0,0,0,4.6,4.56h4.6q4,0,4.55-4.56Z"/><path class="cls-1" d="M1256.69,172.78V131.53h22.91v4.6h-13.75v13.75H1275v4.56h-9.19v13.75h13.75v4.59Z"/><rect class="cls-1" x="1098.13" y="216.99" width="2" height="387.71"/><circle class="cls-2" cx="1099.13" cy="214.99" r="14.33"/></svg>