<svg id="_1" data-name="1" xmlns="http://www.w3.org/2000/svg" viewBox="0 0 1234.25 1157.77"><defs><style>.cls-1{fill:#fff;}.cls-2{fill:none;stroke:#fff;stroke-miterlimit:10;stroke-width:2px;}.cls-3{fill:#e43800;}</style></defs><path class="cls-1" d="M453.94,29.88h13.75V43.63q0,4.56-2.94,6.85a9.87,9.87,0,0,1-6.22,2.3h-9.19a9.18,9.18,0,0,1-9.15-9.15V20.69a8.91,8.91,0,0,1,2.65-6.43,8.71,8.71,0,0,1,6.5-2.73h9.19q8.64,0,9.16,9.16h-4.6q-.54-4.56-4.56-4.56h-4.59a4.45,4.45,0,0,0-3.25,1.34,4.39,4.39,0,0,0-1.35,3.22V43.63a4.34,4.34,0,0,0,1.35,3.22,4.45,4.45,0,0,0,3.25,1.34q4.38-.22,4.59-4.56V34.44h-4.59Z"/><path class="cls-1" d="M486,11.53h9.19a8.82,8.82,0,0,1,6.46,2.71,8.82,8.82,0,0,1,2.7,6.45V43.63a9.24,9.24,0,0,1-9.16,9.15H486a9.18,9.18,0,0,1-9.15-9.15V20.69a8.84,8.84,0,0,1,2.69-6.46A8.81,8.81,0,0,1,486,11.53Zm0,9.16V43.63a4.6,4.6,0,0,0,9.19,0V20.69a4.36,4.36,0,0,0-1.36-3.22,4.59,4.59,0,0,0-6.48,0A4.39,4.39,0,0,0,486,20.69Z"/><path class="cls-1" d="M531.84,11.53H541V37.12a15.09,15.09,0,0,1-4.61,11,15,15,0,0,1-11,4.63H513.49V11.53h9.15V48.19h4.6a4.63,4.63,0,0,0,4.6-4.56Z"/><path class="cls-1" d="M550.14,52.78V11.53H573v4.6H559.29V29.88h9.2v4.56h-9.2V48.19H573v4.59Z"/><path class="cls-1" d="M582.24,52.78V11.53h18.35A8.81,8.81,0,0,1,607,14.24a8.82,8.82,0,0,1,2.7,6.45v2.49a9.8,9.8,0,0,1-2.11,5.92q-2.1,2.83-7,2.84h4.55a4.64,4.64,0,0,1,4.6,4.6V52.78h-9.15V39a4.4,4.4,0,0,0-1.37-3.24A4.45,4.45,0,0,0,596,34.44h-4.6V52.78Zm9.15-22.9H596a4.66,4.66,0,0,0,4.6-4.6V20.69a4.37,4.37,0,0,0-1.37-3.22A4.48,4.48,0,0,0,596,16.13h-4.6Z"/><path class="cls-1" d="M618.89,52.78V11.53H621l25.42,22.91V11.53H651V52.78h-2.11l-25.39-22.9v22.9Z"/><path class="cls-1" d="M660.14,52.78V20.69a8.81,8.81,0,0,1,2.7-6.46,8.79,8.79,0,0,1,6.45-2.7h9.2a8.8,8.8,0,0,1,6.45,2.71,8.82,8.82,0,0,1,2.7,6.45V52.78h-9.15V34.44h-9.2V52.78Zm9.15-22.9h9.2V20.69a4.37,4.37,0,0,0-1.37-3.22,4.57,4.57,0,0,0-6.47,0,4.36,4.36,0,0,0-1.36,3.22Z"/><path class="cls-1" d="M696.79,52.78V11.53h2.09l25.41,22.91V11.53h4.6V52.78h-2.11l-25.39-22.9v22.9Z"/><path class="cls-1" d="M765.54,43.63q-.6,9.15-9.15,9.15h-9.2A9.2,9.2,0,0,1,738,43.63V20.69a9,9,0,0,1,2.65-6.43,8.72,8.72,0,0,1,6.5-2.73h9.2q8.64,0,9.15,9.16h-4.6q-.53-4.56-4.55-4.56h-4.6a4.45,4.45,0,0,0-3.24,1.34,4.4,4.4,0,0,0-1.36,3.22V43.63a4.63,4.63,0,0,0,4.6,4.56h4.6q4,0,4.55-4.56Z"/><path class="cls-1" d="M774.69,52.78V11.53H797.6v4.6H783.85V29.88H793v4.56h-9.19V48.19H797.6v4.59Z"/><line class="cls-2" x1="617.13" y1="694.71" x2="617.13" y2="96.99"/><circle class="cls-3" cx="617.13" cy="94.99" r="14.33"/></svg>