<svg id="_3" data-name="3" xmlns="http://www.w3.org/2000/svg" viewBox="0 0 2198.25 1189.41"><defs><style>.cls-1{fill:#fff;}.cls-2{fill:#e43800;}</style></defs><path class="cls-1" d="M1562,855V813.71h9.17V855Z"/><path class="cls-1" d="M1584.93,855V813.71H1587l25.41,22.9v-22.9h4.6V855h-2.1l-25.4-22.9V855Z"/><path class="cls-1" d="M1626.18,841.21v-4.6h22.91v4.6Z"/><path class="cls-1" d="M1672,832.06h13.75v13.75q0,4.56-2.93,6.85a9.89,9.89,0,0,1-6.22,2.3h-9.2a9.2,9.2,0,0,1-9.15-9.15V822.86a8.94,8.94,0,0,1,2.65-6.42,8.72,8.72,0,0,1,6.5-2.73h9.2q8.64,0,9.15,9.15h-4.6q-.53-4.54-4.55-4.55H1672a4.45,4.45,0,0,0-3.24,1.34,4.36,4.36,0,0,0-1.36,3.21v22.95a4.33,4.33,0,0,0,1.36,3.22,4.44,4.44,0,0,0,3.24,1.33c2.92-.14,4.46-1.66,4.6-4.55v-9.2H1672Z"/><path class="cls-1" d="M1694.93,855v-32.1a9.22,9.22,0,0,1,9.16-9.15h9.19a9.22,9.22,0,0,1,9.15,9.15V855h-9.15V836.61h-9.19V855Zm9.16-22.9h9.19v-9.2a4.36,4.36,0,0,0-1.36-3.21,4.59,4.59,0,0,0-6.48,0,4.38,4.38,0,0,0-1.35,3.21Z"/><path class="cls-1" d="M1731.59,855V813.71h2.08l19.59,19.55,19.58-19.55h4.59V855h-9.19V829.74l-16.09,16.09-16-16.09V855Z"/><path class="cls-1" d="M1786.59,855V813.71h22.9v4.6h-13.75v13.75h9.19v4.55h-9.19v13.75h13.75V855Z"/><path class="cls-1" d="M1850.46,813.71h9.15v32.1a9.25,9.25,0,0,1-9.15,9.15h-9.2a9.2,9.2,0,0,1-9.15-9.15v-32.1h9.15v32.1a4.61,4.61,0,0,0,4.6,4.55,4.59,4.59,0,0,0,4.6-4.55Z"/><path class="cls-1" d="M1873.32,855V818.31h-9.15v-4.6h27.5v4.6h-9.16V855Z"/><path class="cls-1" d="M1900.82,855V813.71H1910V855Z"/><path class="cls-1" d="M1923.76,855V813.71h9.16v36.65h13.75V855Z"/><path class="cls-1" d="M1960.41,855V813.71h9.18V855Z"/><path class="cls-1" d="M1987.91,855V818.31h-9.15v-4.6h27.5v4.6h-9.15V855Z"/><path class="cls-1" d="M2020,855V836.61q-9.15-1.05-9.15-9.15V813.71H2020v13.75a4.6,4.6,0,0,0,9.2,0V813.71h9.15v13.75q0,8.1-9.15,9.15V855Z"/><rect class="cls-1" x="1312.09" y="467.93" width="2" height="487.87" transform="translate(58.06 1521.71) rotate(-61.3)"/><circle class="cls-2" cx="1515.81" cy="823.63" r="14.33"/></svg>