<svg id="_2" data-name="2" xmlns="http://www.w3.org/2000/svg" viewBox="0 0 1234.25 1157.77"><defs><style>.cls-1{fill:#fff;}.cls-2{fill:none;stroke:#fff;stroke-miterlimit:10;stroke-width:2px;}.cls-3{fill:#e43800;}</style></defs><path class="cls-1" d="M922.9,267.8V226.55h9.15V263.2H945.8v4.6Z"/><path class="cls-1" d="M955,267.8V235.7a9.2,9.2,0,0,1,9.15-9.15h9.19a9.24,9.24,0,0,1,9.16,9.15v32.1h-9.16V249.45h-9.19V267.8Zm9.15-22.9h9.19v-9.2a4.36,4.36,0,0,0-1.36-3.21,4.59,4.59,0,0,0-6.48,0,4.38,4.38,0,0,0-1.35,3.21Z"/><path class="cls-1" d="M991.65,267.8V226.55h2.08l25.42,22.9v-22.9h4.59V267.8h-2.1l-25.4-22.9v22.9Z"/><path class="cls-1" d="M1032.9,267.8V226.55h18.34a9.24,9.24,0,0,1,9.16,9.15v22.95a9.25,9.25,0,0,1-9.16,9.15Zm9.15-4.6h4.6a4.59,4.59,0,0,0,4.59-4.55V235.7a4.36,4.36,0,0,0-1.36-3.21,4.48,4.48,0,0,0-3.23-1.34h-4.6Z"/><path class="cls-1" d="M838.1,292.55h9.2a9.24,9.24,0,0,1,9.15,9.15v22.95a9.25,9.25,0,0,1-9.15,9.15h-9.2a9.2,9.2,0,0,1-9.15-9.15V301.7a9.2,9.2,0,0,1,9.15-9.15Zm0,9.15v22.95a4.6,4.6,0,0,0,9.2,0V301.7a4.37,4.37,0,0,0-1.37-3.21,4.59,4.59,0,0,0-6.48,0A4.38,4.38,0,0,0,838.1,301.7Z"/><path class="cls-1" d="M865.6,292.55h9.15V329.2h4.6a4.61,4.61,0,0,0,4.6-4.55v-32.1h9.15V329.2h4.6a4.59,4.59,0,0,0,4.55-4.55v-32.1h9.2v25.59a15.78,15.78,0,0,1-15.66,15.66H884v-1.46a13.33,13.33,0,0,1-6.51,1.46H865.6Z"/><path class="cls-1" d="M920.6,333.8V292.55h2.08l25.42,22.9v-22.9h4.6V333.8h-2.11L925.2,310.9v22.9Z"/><path class="cls-1" d="M961.85,333.8V292.55h22.9v4.6H971V310.9h9.2v4.55H971V329.2h13.75v4.6Z"/><path class="cls-1" d="M994,333.8V292.55h18.34a9.24,9.24,0,0,1,9.16,9.15v2.5a9.83,9.83,0,0,1-2.11,5.91q-2.1,2.85-7.05,2.85h4.56a4.63,4.63,0,0,1,4.6,4.6V333.8h-9.16V320.05a4.64,4.64,0,0,0-4.59-4.6h-4.6V333.8Zm9.15-22.9h4.6a4.66,4.66,0,0,0,4.59-4.6v-4.6a4.36,4.36,0,0,0-1.36-3.21,4.48,4.48,0,0,0-3.23-1.34h-4.6Z"/><path class="cls-1" d="M1053.5,301.7H1049c-.41-3.06-1.85-4.59-4.34-4.59a5,5,0,0,0-3.63,1.16,4.51,4.51,0,0,0-1.23,3.45,4.76,4.76,0,0,0,1.35,3.23l9.72,10.91a9.56,9.56,0,0,1,2.68,6.47v2.32a9.22,9.22,0,0,1-9.15,9.15h-4.6q-4.56,0-6.85-2.3c-1.54-1.53-2.3-3.81-2.3-6.85h4.6c0,.31,0,.56,0,.75a3.21,3.21,0,0,0,1.44,2.84,5.59,5.59,0,0,0,3.16,1,4.54,4.54,0,0,0,3.52-1.18,4.93,4.93,0,0,0,1.08-3.44,4.7,4.7,0,0,0-1.35-3.22l-9.72-10.87a9.5,9.5,0,0,1-2.68-6.47V301.7a9.2,9.2,0,0,1,9.15-9.15h4.6Q1052.95,292.55,1053.5,301.7Z"/><path class="cls-1" d="M1062.7,333.8V292.55h9.15V310.9H1081V292.55h9.16V333.8H1081V315.45h-9.19V333.8Z"/><path class="cls-1" d="M1103.9,333.8V292.55h9.18V333.8Z"/><path class="cls-1" d="M1126.85,333.8V292.55h18.35a9.24,9.24,0,0,1,9.15,9.15v4.6a9.2,9.2,0,0,1-9.15,9.15H1136V333.8Zm9.15-22.9h4.6a4.68,4.68,0,0,0,4.6-4.6v-4.6a4.37,4.37,0,0,0-1.37-3.21,4.48,4.48,0,0,0-3.23-1.34H1136Z"/><line class="cls-2" x1="616.07" y1="684.84" x2="996.8" y2="379.78"/><circle class="cls-3" cx="987.79" cy="387.61" r="14.33"/></svg>