<svg id="_5" data-name="5" xmlns="http://www.w3.org/2000/svg" viewBox="0 0 2198.25 1189.41"><defs><style>.cls-1{fill:#fff;}.cls-2{fill:#e43800;}</style></defs><path class="cls-1" d="M145.38,372.55V331.3h9.15V368h13.75v4.6Z"/><path class="cls-1" d="M177.47,372.55v-32.1a9.2,9.2,0,0,1,9.15-9.15h9.2a9.2,9.2,0,0,1,9.15,9.15v32.1h-9.15V354.2h-9.2v18.35Zm9.15-22.91h9.2v-9.19a4.36,4.36,0,0,0-1.36-3.21,4.56,4.56,0,0,0-6.48,0,4.36,4.36,0,0,0-1.36,3.21Z"/><path class="cls-1" d="M214.12,372.55V331.3h2.09l25.41,22.9V331.3h4.6v41.25h-2.1l-25.4-22.91v22.91Z"/><path class="cls-1" d="M255.37,372.55V331.3h18.35a9.2,9.2,0,0,1,9.15,9.15v22.94a9.24,9.24,0,0,1-9.15,9.16Zm9.16-4.6h4.59a4.59,4.59,0,0,0,4.6-4.56V340.45a4.32,4.32,0,0,0-1.36-3.21,4.45,4.45,0,0,0-3.24-1.35h-4.59Z"/><path class="cls-1" d="M314.61,331.3h9.19a9.2,9.2,0,0,1,9.15,9.15v22.94a9.24,9.24,0,0,1-9.15,9.16h-9.19a9.22,9.22,0,0,1-9.16-9.16V340.45a9.2,9.2,0,0,1,9.16-9.15Zm0,9.15v22.94a4.6,4.6,0,0,0,9.19,0V340.45a4.32,4.32,0,0,0-1.36-3.21,4.56,4.56,0,0,0-6.48,0A4.35,4.35,0,0,0,314.61,340.45Z"/><path class="cls-1" d="M342.11,331.3h9.15V368h4.6a4.59,4.59,0,0,0,4.59-4.56V331.3h9.16V368h4.59a4.59,4.59,0,0,0,4.56-4.56V331.3H388v25.58a15.77,15.77,0,0,1-15.66,15.67H360.45v-1.46a13.33,13.33,0,0,1-6.51,1.46H342.11Z"/><path class="cls-1" d="M397.11,372.55V331.3h2.08l25.42,22.9V331.3h4.59v41.25h-2.1l-25.4-22.91v22.91Z"/><path class="cls-1" d="M438.36,372.55V331.3h22.9v4.59H447.51v13.75h9.19v4.56h-9.19V368h13.75v4.6Z"/><path class="cls-1" d="M470.45,372.55V331.3H488.8a9.2,9.2,0,0,1,9.15,9.15v2.49a9.85,9.85,0,0,1-2.1,5.92q-2.12,2.85-7.05,2.85h4.56A4.61,4.61,0,0,1,498,356.3v16.25H488.8V358.8a4.63,4.63,0,0,0-4.6-4.6h-4.59v18.35Zm9.16-22.91h4.59a4.64,4.64,0,0,0,4.6-4.59v-4.6a4.32,4.32,0,0,0-1.36-3.21,4.45,4.45,0,0,0-3.24-1.35h-4.59Z"/><path class="cls-1" d="M530,340.45h-4.56c-.4-3.07-1.84-4.6-4.34-4.6a5.12,5.12,0,0,0-3.63,1.16,4.57,4.57,0,0,0-1.22,3.46,4.73,4.73,0,0,0,1.35,3.22l9.71,10.92a9.55,9.55,0,0,1,2.69,6.46v2.32a8.86,8.86,0,0,1-2.69,6.44,8.76,8.76,0,0,1-6.46,2.72h-4.6c-3,0-5.32-.77-6.86-2.3s-2.29-3.82-2.29-6.86h4.59c0,.32,0,.57,0,.76A3.19,3.19,0,0,0,513.1,367a5.51,5.51,0,0,0,3.16,1,4.6,4.6,0,0,0,3.52-1.18,4.94,4.94,0,0,0,1.08-3.44,4.71,4.71,0,0,0-1.36-3.22l-9.71-10.87a9.52,9.52,0,0,1-2.68-6.47v-2.32a9.18,9.18,0,0,1,9.15-9.15h4.6Q529.44,331.3,530,340.45Z"/><path class="cls-1" d="M539.2,372.55V331.3h9.15v18.34h9.2V331.3h9.15v41.25h-9.15V354.2h-9.2v18.35Z"/><path class="cls-1" d="M580.41,372.55V331.3h9.17v41.25Z"/><path class="cls-1" d="M603.35,372.55V331.3H621.7a9.2,9.2,0,0,1,9.15,9.15v4.6a9.2,9.2,0,0,1-9.15,9.15h-9.19v18.35Zm9.16-22.91h4.59a4.64,4.64,0,0,0,4.6-4.59v-4.6a4.32,4.32,0,0,0-1.36-3.21,4.45,4.45,0,0,0-3.24-1.35h-4.59Z"/><rect class="cls-1" x="884.62" y="233.62" width="2" height="487.87" transform="translate(41.41 1024.99) rotate(-61.3)"/><circle class="cls-2" cx="681.9" cy="366.55" r="14.33"/></svg>